<mxfile host="app.diagrams.net" modified="2023-09-26T19:42:08.970Z" agent="Mozilla/5.0 (Windows NT 10.0; Win64; x64) AppleWebKit/537.36 (KHTML, like Gecko) Chrome/116.0.0.0 Safari/537.36" etag="r_4kqjkBAVKbmd9gsI8j" version="21.8.2" type="device">
  <diagram id="R2lEEEUBdFMjLlhIrx00" name="Page-1">
    <mxGraphModel dx="1393" dy="-347" grid="1" gridSize="1" guides="1" tooltips="1" connect="1" arrows="1" fold="1" page="1" pageScale="1" pageWidth="850" pageHeight="1100" math="0" shadow="1" extFonts="Permanent Marker^https://fonts.googleapis.com/css?family=Permanent+Marker">
      <root>
        <mxCell id="0" />
        <mxCell id="1" parent="0" />
        <mxCell id="C-vyLk0tnHw3VtMMgP7b-23" value="TB_VEICULO" style="shape=table;startSize=30;container=1;collapsible=1;childLayout=tableLayout;fixedRows=1;rowLines=0;fontStyle=0;align=center;resizeLast=1;fontSize=11;fontFamily=Verdana;shadow=1;labelBackgroundColor=none;fillColor=#5D7F99;strokeColor=#D0CEE2;fontColor=#1A1A1A;" parent="1" vertex="1">
          <mxGeometry x="256" y="1342" width="299" height="538" as="geometry">
            <mxRectangle x="32" y="280" width="103" height="30" as="alternateBounds" />
          </mxGeometry>
        </mxCell>
        <mxCell id="C-vyLk0tnHw3VtMMgP7b-24" value="" style="shape=partialRectangle;collapsible=0;dropTarget=0;pointerEvents=0;fillColor=none;points=[[0,0.5],[1,0.5]];portConstraint=eastwest;top=0;left=0;right=0;bottom=1;fontSize=11;fontFamily=Verdana;shadow=1;labelBackgroundColor=none;strokeColor=#D0CEE2;fontColor=#1A1A1A;fontStyle=0" parent="C-vyLk0tnHw3VtMMgP7b-23" vertex="1">
          <mxGeometry y="30" width="299" height="30" as="geometry" />
        </mxCell>
        <mxCell id="C-vyLk0tnHw3VtMMgP7b-25" value="PK" style="shape=partialRectangle;overflow=hidden;connectable=0;fillColor=none;top=0;left=0;bottom=0;right=0;fontStyle=0;fontSize=11;fontFamily=Verdana;shadow=1;labelBackgroundColor=none;strokeColor=#D0CEE2;fontColor=#1A1A1A;" parent="C-vyLk0tnHw3VtMMgP7b-24" vertex="1">
          <mxGeometry width="30" height="30" as="geometry">
            <mxRectangle width="30" height="30" as="alternateBounds" />
          </mxGeometry>
        </mxCell>
        <mxCell id="C-vyLk0tnHw3VtMMgP7b-26" value="VEI_ID SERIAL" style="shape=partialRectangle;overflow=hidden;connectable=0;fillColor=none;top=0;left=0;bottom=0;right=0;align=left;spacingLeft=6;fontStyle=4;fontSize=11;fontFamily=Verdana;shadow=1;labelBackgroundColor=none;strokeColor=#D0CEE2;fontColor=#1A1A1A;" parent="C-vyLk0tnHw3VtMMgP7b-24" vertex="1">
          <mxGeometry x="30" width="269" height="30" as="geometry">
            <mxRectangle width="269" height="30" as="alternateBounds" />
          </mxGeometry>
        </mxCell>
        <mxCell id="C-vyLk0tnHw3VtMMgP7b-27" value="" style="shape=partialRectangle;collapsible=0;dropTarget=0;pointerEvents=0;fillColor=none;points=[[0,0.5],[1,0.5]];portConstraint=eastwest;top=0;left=0;right=0;bottom=0;fontSize=11;fontFamily=Verdana;shadow=1;labelBackgroundColor=none;strokeColor=#D0CEE2;fontColor=#1A1A1A;fontStyle=0" parent="C-vyLk0tnHw3VtMMgP7b-23" vertex="1">
          <mxGeometry y="60" width="299" height="30" as="geometry" />
        </mxCell>
        <mxCell id="C-vyLk0tnHw3VtMMgP7b-28" value="" style="shape=partialRectangle;overflow=hidden;connectable=0;fillColor=none;top=0;left=0;bottom=0;right=0;fontSize=11;fontFamily=Verdana;shadow=1;labelBackgroundColor=none;strokeColor=#D0CEE2;fontColor=#1A1A1A;fontStyle=0" parent="C-vyLk0tnHw3VtMMgP7b-27" vertex="1">
          <mxGeometry width="30" height="30" as="geometry">
            <mxRectangle width="30" height="30" as="alternateBounds" />
          </mxGeometry>
        </mxCell>
        <mxCell id="C-vyLk0tnHw3VtMMgP7b-29" value="VEI_MARCA VARCHAR(30) NOT NULL" style="shape=partialRectangle;overflow=hidden;connectable=0;fillColor=none;top=0;left=0;bottom=0;right=0;align=left;spacingLeft=6;fontSize=11;fontFamily=Verdana;shadow=1;labelBackgroundColor=none;strokeColor=#D0CEE2;fontColor=#1A1A1A;fontStyle=0" parent="C-vyLk0tnHw3VtMMgP7b-27" vertex="1">
          <mxGeometry x="30" width="269" height="30" as="geometry">
            <mxRectangle width="269" height="30" as="alternateBounds" />
          </mxGeometry>
        </mxCell>
        <mxCell id="KY0VML5P8wNxNONXl5rY-31" value="" style="shape=partialRectangle;collapsible=0;dropTarget=0;pointerEvents=0;fillColor=none;points=[[0,0.5],[1,0.5]];portConstraint=eastwest;top=0;left=0;right=0;bottom=0;fontSize=11;fontFamily=Verdana;shadow=1;labelBackgroundColor=none;strokeColor=#D0CEE2;fontColor=#1A1A1A;fontStyle=0" vertex="1" parent="C-vyLk0tnHw3VtMMgP7b-23">
          <mxGeometry y="90" width="299" height="28" as="geometry" />
        </mxCell>
        <mxCell id="KY0VML5P8wNxNONXl5rY-32" value="" style="shape=partialRectangle;overflow=hidden;connectable=0;fillColor=none;top=0;left=0;bottom=0;right=0;fontSize=11;fontFamily=Verdana;shadow=1;labelBackgroundColor=none;strokeColor=#D0CEE2;fontColor=#1A1A1A;fontStyle=0" vertex="1" parent="KY0VML5P8wNxNONXl5rY-31">
          <mxGeometry width="30" height="28" as="geometry">
            <mxRectangle width="30" height="28" as="alternateBounds" />
          </mxGeometry>
        </mxCell>
        <mxCell id="KY0VML5P8wNxNONXl5rY-33" value="VEI_NOMVEI VARCHAR(50) NOT NULL" style="shape=partialRectangle;overflow=hidden;connectable=0;fillColor=none;top=0;left=0;bottom=0;right=0;align=left;spacingLeft=6;fontSize=11;fontFamily=Verdana;shadow=1;labelBackgroundColor=none;strokeColor=#D0CEE2;fontColor=#1A1A1A;fontStyle=0" vertex="1" parent="KY0VML5P8wNxNONXl5rY-31">
          <mxGeometry x="30" width="269" height="28" as="geometry">
            <mxRectangle width="269" height="28" as="alternateBounds" />
          </mxGeometry>
        </mxCell>
        <mxCell id="KY0VML5P8wNxNONXl5rY-34" value="" style="shape=partialRectangle;collapsible=0;dropTarget=0;pointerEvents=0;fillColor=none;points=[[0,0.5],[1,0.5]];portConstraint=eastwest;top=0;left=0;right=0;bottom=0;fontSize=11;fontFamily=Verdana;shadow=1;labelBackgroundColor=none;strokeColor=#D0CEE2;fontColor=#1A1A1A;fontStyle=0" vertex="1" parent="C-vyLk0tnHw3VtMMgP7b-23">
          <mxGeometry y="118" width="299" height="30" as="geometry" />
        </mxCell>
        <mxCell id="KY0VML5P8wNxNONXl5rY-35" value="FK" style="shape=partialRectangle;overflow=hidden;connectable=0;fillColor=none;top=0;left=0;bottom=0;right=0;fontSize=11;fontFamily=Verdana;shadow=1;labelBackgroundColor=none;strokeColor=#D0CEE2;fontColor=#1A1A1A;fontStyle=0" vertex="1" parent="KY0VML5P8wNxNONXl5rY-34">
          <mxGeometry width="30" height="30" as="geometry">
            <mxRectangle width="30" height="30" as="alternateBounds" />
          </mxGeometry>
        </mxCell>
        <mxCell id="KY0VML5P8wNxNONXl5rY-36" value="VEI_TIPVEI INT NOT NULL" style="shape=partialRectangle;overflow=hidden;connectable=0;fillColor=none;top=0;left=0;bottom=0;right=0;align=left;spacingLeft=6;fontSize=11;fontFamily=Verdana;shadow=1;labelBackgroundColor=none;strokeColor=#D0CEE2;fontColor=#1A1A1A;fontStyle=0" vertex="1" parent="KY0VML5P8wNxNONXl5rY-34">
          <mxGeometry x="30" width="269" height="30" as="geometry">
            <mxRectangle width="269" height="30" as="alternateBounds" />
          </mxGeometry>
        </mxCell>
        <mxCell id="KY0VML5P8wNxNONXl5rY-37" value="" style="shape=partialRectangle;collapsible=0;dropTarget=0;pointerEvents=0;fillColor=none;points=[[0,0.5],[1,0.5]];portConstraint=eastwest;top=0;left=0;right=0;bottom=0;fontSize=11;fontFamily=Verdana;shadow=1;labelBackgroundColor=none;strokeColor=#D0CEE2;fontColor=#1A1A1A;fontStyle=0" vertex="1" parent="C-vyLk0tnHw3VtMMgP7b-23">
          <mxGeometry y="148" width="299" height="25" as="geometry" />
        </mxCell>
        <mxCell id="KY0VML5P8wNxNONXl5rY-38" value="" style="shape=partialRectangle;overflow=hidden;connectable=0;fillColor=none;top=0;left=0;bottom=0;right=0;fontSize=11;fontFamily=Verdana;shadow=1;labelBackgroundColor=none;strokeColor=#D0CEE2;fontColor=#1A1A1A;fontStyle=0" vertex="1" parent="KY0VML5P8wNxNONXl5rY-37">
          <mxGeometry width="30" height="25" as="geometry">
            <mxRectangle width="30" height="25" as="alternateBounds" />
          </mxGeometry>
        </mxCell>
        <mxCell id="KY0VML5P8wNxNONXl5rY-39" value="VEI_COR VACHAR(30) NOT NULL" style="shape=partialRectangle;overflow=hidden;connectable=0;fillColor=none;top=0;left=0;bottom=0;right=0;align=left;spacingLeft=6;fontSize=11;fontFamily=Verdana;shadow=1;labelBackgroundColor=none;strokeColor=#D0CEE2;fontColor=#1A1A1A;fontStyle=0" vertex="1" parent="KY0VML5P8wNxNONXl5rY-37">
          <mxGeometry x="30" width="269" height="25" as="geometry">
            <mxRectangle width="269" height="25" as="alternateBounds" />
          </mxGeometry>
        </mxCell>
        <mxCell id="KY0VML5P8wNxNONXl5rY-40" value="" style="shape=partialRectangle;collapsible=0;dropTarget=0;pointerEvents=0;fillColor=none;points=[[0,0.5],[1,0.5]];portConstraint=eastwest;top=0;left=0;right=0;bottom=0;fontSize=11;fontFamily=Verdana;shadow=1;labelBackgroundColor=none;strokeColor=#D0CEE2;fontColor=#1A1A1A;fontStyle=0" vertex="1" parent="C-vyLk0tnHw3VtMMgP7b-23">
          <mxGeometry y="173" width="299" height="32" as="geometry" />
        </mxCell>
        <mxCell id="KY0VML5P8wNxNONXl5rY-41" value="" style="shape=partialRectangle;overflow=hidden;connectable=0;fillColor=none;top=0;left=0;bottom=0;right=0;fontSize=11;fontFamily=Verdana;shadow=1;labelBackgroundColor=none;strokeColor=#D0CEE2;fontColor=#1A1A1A;fontStyle=0" vertex="1" parent="KY0VML5P8wNxNONXl5rY-40">
          <mxGeometry width="30" height="32" as="geometry">
            <mxRectangle width="30" height="32" as="alternateBounds" />
          </mxGeometry>
        </mxCell>
        <mxCell id="KY0VML5P8wNxNONXl5rY-42" value="VEI_QTDLUGARES INT NOT NULL" style="shape=partialRectangle;overflow=hidden;connectable=0;fillColor=none;top=0;left=0;bottom=0;right=0;align=left;spacingLeft=6;fontSize=11;fontFamily=Verdana;shadow=1;labelBackgroundColor=none;strokeColor=#D0CEE2;fontColor=#1A1A1A;fontStyle=0" vertex="1" parent="KY0VML5P8wNxNONXl5rY-40">
          <mxGeometry x="30" width="269" height="32" as="geometry">
            <mxRectangle width="269" height="32" as="alternateBounds" />
          </mxGeometry>
        </mxCell>
        <mxCell id="KY0VML5P8wNxNONXl5rY-43" value="" style="shape=partialRectangle;collapsible=0;dropTarget=0;pointerEvents=0;fillColor=none;points=[[0,0.5],[1,0.5]];portConstraint=eastwest;top=0;left=0;right=0;bottom=0;fontSize=11;fontFamily=Verdana;shadow=1;labelBackgroundColor=none;strokeColor=#D0CEE2;fontColor=#1A1A1A;fontStyle=0" vertex="1" parent="C-vyLk0tnHw3VtMMgP7b-23">
          <mxGeometry y="205" width="299" height="29" as="geometry" />
        </mxCell>
        <mxCell id="KY0VML5P8wNxNONXl5rY-44" value="" style="shape=partialRectangle;overflow=hidden;connectable=0;fillColor=none;top=0;left=0;bottom=0;right=0;fontSize=11;fontFamily=Verdana;shadow=1;labelBackgroundColor=none;strokeColor=#D0CEE2;fontColor=#1A1A1A;fontStyle=0" vertex="1" parent="KY0VML5P8wNxNONXl5rY-43">
          <mxGeometry width="30" height="29" as="geometry">
            <mxRectangle width="30" height="29" as="alternateBounds" />
          </mxGeometry>
        </mxCell>
        <mxCell id="KY0VML5P8wNxNONXl5rY-45" value="VEI_CAMBIO VARCHAR(20)" style="shape=partialRectangle;overflow=hidden;connectable=0;fillColor=none;top=0;left=0;bottom=0;right=0;align=left;spacingLeft=6;fontSize=11;fontFamily=Verdana;shadow=1;labelBackgroundColor=none;strokeColor=#D0CEE2;fontColor=#1A1A1A;fontStyle=0" vertex="1" parent="KY0VML5P8wNxNONXl5rY-43">
          <mxGeometry x="30" width="269" height="29" as="geometry">
            <mxRectangle width="269" height="29" as="alternateBounds" />
          </mxGeometry>
        </mxCell>
        <mxCell id="KY0VML5P8wNxNONXl5rY-46" value="" style="shape=partialRectangle;collapsible=0;dropTarget=0;pointerEvents=0;fillColor=none;points=[[0,0.5],[1,0.5]];portConstraint=eastwest;top=0;left=0;right=0;bottom=0;fontSize=11;fontFamily=Verdana;shadow=1;labelBackgroundColor=none;strokeColor=#D0CEE2;fontColor=#1A1A1A;fontStyle=0" vertex="1" parent="C-vyLk0tnHw3VtMMgP7b-23">
          <mxGeometry y="234" width="299" height="30" as="geometry" />
        </mxCell>
        <mxCell id="KY0VML5P8wNxNONXl5rY-47" value="" style="shape=partialRectangle;overflow=hidden;connectable=0;fillColor=none;top=0;left=0;bottom=0;right=0;fontSize=11;fontFamily=Verdana;shadow=1;labelBackgroundColor=none;strokeColor=#D0CEE2;fontColor=#1A1A1A;fontStyle=0" vertex="1" parent="KY0VML5P8wNxNONXl5rY-46">
          <mxGeometry width="30" height="30" as="geometry">
            <mxRectangle width="30" height="30" as="alternateBounds" />
          </mxGeometry>
        </mxCell>
        <mxCell id="KY0VML5P8wNxNONXl5rY-48" value="VEI_BANCOURO INT NOT NULL" style="shape=partialRectangle;overflow=hidden;connectable=0;fillColor=none;top=0;left=0;bottom=0;right=0;align=left;spacingLeft=6;fontSize=11;fontFamily=Verdana;shadow=1;labelBackgroundColor=none;strokeColor=#D0CEE2;fontColor=#1A1A1A;fontStyle=0" vertex="1" parent="KY0VML5P8wNxNONXl5rY-46">
          <mxGeometry x="30" width="269" height="30" as="geometry">
            <mxRectangle width="269" height="30" as="alternateBounds" />
          </mxGeometry>
        </mxCell>
        <mxCell id="KY0VML5P8wNxNONXl5rY-49" value="" style="shape=partialRectangle;collapsible=0;dropTarget=0;pointerEvents=0;fillColor=none;points=[[0,0.5],[1,0.5]];portConstraint=eastwest;top=0;left=0;right=0;bottom=0;fontSize=11;fontFamily=Verdana;shadow=1;labelBackgroundColor=none;strokeColor=#D0CEE2;fontColor=#1A1A1A;fontStyle=0" vertex="1" parent="C-vyLk0tnHw3VtMMgP7b-23">
          <mxGeometry y="264" width="299" height="33" as="geometry" />
        </mxCell>
        <mxCell id="KY0VML5P8wNxNONXl5rY-50" value="" style="shape=partialRectangle;overflow=hidden;connectable=0;fillColor=none;top=0;left=0;bottom=0;right=0;fontSize=11;fontFamily=Verdana;shadow=1;labelBackgroundColor=none;strokeColor=#D0CEE2;fontColor=#1A1A1A;fontStyle=0" vertex="1" parent="KY0VML5P8wNxNONXl5rY-49">
          <mxGeometry width="30" height="33" as="geometry">
            <mxRectangle width="30" height="33" as="alternateBounds" />
          </mxGeometry>
        </mxCell>
        <mxCell id="KY0VML5P8wNxNONXl5rY-51" value="VEI_ARCOND INT NOT NULL" style="shape=partialRectangle;overflow=hidden;connectable=0;fillColor=none;top=0;left=0;bottom=0;right=0;align=left;spacingLeft=6;fontSize=11;fontFamily=Verdana;shadow=1;labelBackgroundColor=none;strokeColor=#D0CEE2;fontColor=#1A1A1A;fontStyle=0" vertex="1" parent="KY0VML5P8wNxNONXl5rY-49">
          <mxGeometry x="30" width="269" height="33" as="geometry">
            <mxRectangle width="269" height="33" as="alternateBounds" />
          </mxGeometry>
        </mxCell>
        <mxCell id="KY0VML5P8wNxNONXl5rY-52" value="" style="shape=partialRectangle;collapsible=0;dropTarget=0;pointerEvents=0;fillColor=none;points=[[0,0.5],[1,0.5]];portConstraint=eastwest;top=0;left=0;right=0;bottom=0;fontSize=11;fontFamily=Verdana;shadow=1;labelBackgroundColor=none;strokeColor=#D0CEE2;fontColor=#1A1A1A;fontStyle=0" vertex="1" parent="C-vyLk0tnHw3VtMMgP7b-23">
          <mxGeometry y="297" width="299" height="29" as="geometry" />
        </mxCell>
        <mxCell id="KY0VML5P8wNxNONXl5rY-53" value="" style="shape=partialRectangle;overflow=hidden;connectable=0;fillColor=none;top=0;left=0;bottom=0;right=0;fontSize=11;fontFamily=Verdana;shadow=1;labelBackgroundColor=none;strokeColor=#D0CEE2;fontColor=#1A1A1A;fontStyle=0" vertex="1" parent="KY0VML5P8wNxNONXl5rY-52">
          <mxGeometry width="30" height="29" as="geometry">
            <mxRectangle width="30" height="29" as="alternateBounds" />
          </mxGeometry>
        </mxCell>
        <mxCell id="KY0VML5P8wNxNONXl5rY-54" value="VEI_DIRHIDRAU INT NOT NULL" style="shape=partialRectangle;overflow=hidden;connectable=0;fillColor=none;top=0;left=0;bottom=0;right=0;align=left;spacingLeft=6;fontSize=11;fontFamily=Verdana;shadow=1;labelBackgroundColor=none;strokeColor=#D0CEE2;fontColor=#1A1A1A;fontStyle=0" vertex="1" parent="KY0VML5P8wNxNONXl5rY-52">
          <mxGeometry x="30" width="269" height="29" as="geometry">
            <mxRectangle width="269" height="29" as="alternateBounds" />
          </mxGeometry>
        </mxCell>
        <mxCell id="KY0VML5P8wNxNONXl5rY-55" value="" style="shape=partialRectangle;collapsible=0;dropTarget=0;pointerEvents=0;fillColor=none;points=[[0,0.5],[1,0.5]];portConstraint=eastwest;top=0;left=0;right=0;bottom=0;fontSize=11;fontFamily=Verdana;shadow=1;labelBackgroundColor=none;strokeColor=#D0CEE2;fontColor=#1A1A1A;fontStyle=0" vertex="1" parent="C-vyLk0tnHw3VtMMgP7b-23">
          <mxGeometry y="326" width="299" height="28" as="geometry" />
        </mxCell>
        <mxCell id="KY0VML5P8wNxNONXl5rY-56" value="" style="shape=partialRectangle;overflow=hidden;connectable=0;fillColor=none;top=0;left=0;bottom=0;right=0;fontSize=11;fontFamily=Verdana;shadow=1;labelBackgroundColor=none;strokeColor=#D0CEE2;fontColor=#1A1A1A;fontStyle=0" vertex="1" parent="KY0VML5P8wNxNONXl5rY-55">
          <mxGeometry width="30" height="28" as="geometry">
            <mxRectangle width="30" height="28" as="alternateBounds" />
          </mxGeometry>
        </mxCell>
        <mxCell id="KY0VML5P8wNxNONXl5rY-57" value="VEI_VIDROELEC INT NOT NULL" style="shape=partialRectangle;overflow=hidden;connectable=0;fillColor=none;top=0;left=0;bottom=0;right=0;align=left;spacingLeft=6;fontSize=11;fontFamily=Verdana;shadow=1;labelBackgroundColor=none;strokeColor=#D0CEE2;fontColor=#1A1A1A;fontStyle=0" vertex="1" parent="KY0VML5P8wNxNONXl5rY-55">
          <mxGeometry x="30" width="269" height="28" as="geometry">
            <mxRectangle width="269" height="28" as="alternateBounds" />
          </mxGeometry>
        </mxCell>
        <mxCell id="KY0VML5P8wNxNONXl5rY-58" value="" style="shape=partialRectangle;collapsible=0;dropTarget=0;pointerEvents=0;fillColor=none;points=[[0,0.5],[1,0.5]];portConstraint=eastwest;top=0;left=0;right=0;bottom=0;fontSize=11;fontFamily=Verdana;shadow=1;labelBackgroundColor=none;strokeColor=#D0CEE2;fontColor=#1A1A1A;fontStyle=0" vertex="1" parent="C-vyLk0tnHw3VtMMgP7b-23">
          <mxGeometry y="354" width="299" height="30" as="geometry" />
        </mxCell>
        <mxCell id="KY0VML5P8wNxNONXl5rY-59" value="" style="shape=partialRectangle;overflow=hidden;connectable=0;fillColor=none;top=0;left=0;bottom=0;right=0;fontSize=11;fontFamily=Verdana;shadow=1;labelBackgroundColor=none;strokeColor=#D0CEE2;fontColor=#1A1A1A;fontStyle=0" vertex="1" parent="KY0VML5P8wNxNONXl5rY-58">
          <mxGeometry width="30" height="30" as="geometry">
            <mxRectangle width="30" height="30" as="alternateBounds" />
          </mxGeometry>
        </mxCell>
        <mxCell id="KY0VML5P8wNxNONXl5rY-60" value="VEI_SENSORRE INT NOT NULL" style="shape=partialRectangle;overflow=hidden;connectable=0;fillColor=none;top=0;left=0;bottom=0;right=0;align=left;spacingLeft=6;fontSize=11;fontFamily=Verdana;shadow=1;labelBackgroundColor=none;strokeColor=#D0CEE2;fontColor=#1A1A1A;fontStyle=0" vertex="1" parent="KY0VML5P8wNxNONXl5rY-58">
          <mxGeometry x="30" width="269" height="30" as="geometry">
            <mxRectangle width="269" height="30" as="alternateBounds" />
          </mxGeometry>
        </mxCell>
        <mxCell id="KY0VML5P8wNxNONXl5rY-61" value="" style="shape=partialRectangle;collapsible=0;dropTarget=0;pointerEvents=0;fillColor=none;points=[[0,0.5],[1,0.5]];portConstraint=eastwest;top=0;left=0;right=0;bottom=0;fontSize=11;fontFamily=Verdana;shadow=1;labelBackgroundColor=none;strokeColor=#D0CEE2;fontColor=#1A1A1A;fontStyle=0" vertex="1" parent="C-vyLk0tnHw3VtMMgP7b-23">
          <mxGeometry y="384" width="299" height="30" as="geometry" />
        </mxCell>
        <mxCell id="KY0VML5P8wNxNONXl5rY-62" value="" style="shape=partialRectangle;overflow=hidden;connectable=0;fillColor=none;top=0;left=0;bottom=0;right=0;fontSize=11;fontFamily=Verdana;shadow=1;labelBackgroundColor=none;strokeColor=#D0CEE2;fontColor=#1A1A1A;fontStyle=0" vertex="1" parent="KY0VML5P8wNxNONXl5rY-61">
          <mxGeometry width="30" height="30" as="geometry">
            <mxRectangle width="30" height="30" as="alternateBounds" />
          </mxGeometry>
        </mxCell>
        <mxCell id="KY0VML5P8wNxNONXl5rY-63" value="VEI_CAMERARE INT NOT NULL" style="shape=partialRectangle;overflow=hidden;connectable=0;fillColor=none;top=0;left=0;bottom=0;right=0;align=left;spacingLeft=6;fontSize=11;fontFamily=Verdana;shadow=1;labelBackgroundColor=none;strokeColor=#D0CEE2;fontColor=#1A1A1A;fontStyle=0" vertex="1" parent="KY0VML5P8wNxNONXl5rY-61">
          <mxGeometry x="30" width="269" height="30" as="geometry">
            <mxRectangle width="269" height="30" as="alternateBounds" />
          </mxGeometry>
        </mxCell>
        <mxCell id="KY0VML5P8wNxNONXl5rY-64" value="" style="shape=partialRectangle;collapsible=0;dropTarget=0;pointerEvents=0;fillColor=none;points=[[0,0.5],[1,0.5]];portConstraint=eastwest;top=0;left=0;right=0;bottom=0;fontSize=11;fontFamily=Verdana;shadow=1;labelBackgroundColor=none;strokeColor=#D0CEE2;fontColor=#1A1A1A;fontStyle=0" vertex="1" parent="C-vyLk0tnHw3VtMMgP7b-23">
          <mxGeometry y="414" width="299" height="30" as="geometry" />
        </mxCell>
        <mxCell id="KY0VML5P8wNxNONXl5rY-65" value="" style="shape=partialRectangle;overflow=hidden;connectable=0;fillColor=none;top=0;left=0;bottom=0;right=0;fontSize=11;fontFamily=Verdana;shadow=1;labelBackgroundColor=none;strokeColor=#D0CEE2;fontColor=#1A1A1A;fontStyle=0" vertex="1" parent="KY0VML5P8wNxNONXl5rY-64">
          <mxGeometry width="30" height="30" as="geometry">
            <mxRectangle width="30" height="30" as="alternateBounds" />
          </mxGeometry>
        </mxCell>
        <mxCell id="KY0VML5P8wNxNONXl5rY-66" value="VEI_DISPONIVEL INT NOT NULL" style="shape=partialRectangle;overflow=hidden;connectable=0;fillColor=none;top=0;left=0;bottom=0;right=0;align=left;spacingLeft=6;fontSize=11;fontFamily=Verdana;shadow=1;labelBackgroundColor=none;strokeColor=#D0CEE2;fontColor=#1A1A1A;fontStyle=0" vertex="1" parent="KY0VML5P8wNxNONXl5rY-64">
          <mxGeometry x="30" width="269" height="30" as="geometry">
            <mxRectangle width="269" height="30" as="alternateBounds" />
          </mxGeometry>
        </mxCell>
        <mxCell id="KY0VML5P8wNxNONXl5rY-67" value="" style="shape=partialRectangle;collapsible=0;dropTarget=0;pointerEvents=0;fillColor=none;points=[[0,0.5],[1,0.5]];portConstraint=eastwest;top=0;left=0;right=0;bottom=0;fontSize=11;fontFamily=Verdana;shadow=1;labelBackgroundColor=none;strokeColor=#D0CEE2;fontColor=#1A1A1A;fontStyle=0" vertex="1" parent="C-vyLk0tnHw3VtMMgP7b-23">
          <mxGeometry y="444" width="299" height="34" as="geometry" />
        </mxCell>
        <mxCell id="KY0VML5P8wNxNONXl5rY-68" value="" style="shape=partialRectangle;overflow=hidden;connectable=0;fillColor=none;top=0;left=0;bottom=0;right=0;fontSize=11;fontFamily=Verdana;shadow=1;labelBackgroundColor=none;strokeColor=#D0CEE2;fontColor=#1A1A1A;fontStyle=0" vertex="1" parent="KY0VML5P8wNxNONXl5rY-67">
          <mxGeometry width="30" height="34" as="geometry">
            <mxRectangle width="30" height="34" as="alternateBounds" />
          </mxGeometry>
        </mxCell>
        <mxCell id="KY0VML5P8wNxNONXl5rY-69" value="VEI_PLACA VARCHAR(6) NOT NULL UNIQUE" style="shape=partialRectangle;overflow=hidden;connectable=0;fillColor=none;top=0;left=0;bottom=0;right=0;align=left;spacingLeft=6;fontSize=11;fontFamily=Verdana;shadow=1;labelBackgroundColor=none;strokeColor=#D0CEE2;fontColor=#1A1A1A;fontStyle=0" vertex="1" parent="KY0VML5P8wNxNONXl5rY-67">
          <mxGeometry x="30" width="269" height="34" as="geometry">
            <mxRectangle width="269" height="34" as="alternateBounds" />
          </mxGeometry>
        </mxCell>
        <mxCell id="KY0VML5P8wNxNONXl5rY-70" value="" style="shape=partialRectangle;collapsible=0;dropTarget=0;pointerEvents=0;fillColor=none;points=[[0,0.5],[1,0.5]];portConstraint=eastwest;top=0;left=0;right=0;bottom=0;fontSize=11;fontFamily=Verdana;shadow=1;labelBackgroundColor=none;strokeColor=#D0CEE2;fontColor=#1A1A1A;fontStyle=0" vertex="1" parent="C-vyLk0tnHw3VtMMgP7b-23">
          <mxGeometry y="478" width="299" height="30" as="geometry" />
        </mxCell>
        <mxCell id="KY0VML5P8wNxNONXl5rY-71" value="" style="shape=partialRectangle;overflow=hidden;connectable=0;fillColor=none;top=0;left=0;bottom=0;right=0;fontSize=11;fontFamily=Verdana;shadow=1;labelBackgroundColor=none;strokeColor=#D0CEE2;fontColor=#1A1A1A;fontStyle=0" vertex="1" parent="KY0VML5P8wNxNONXl5rY-70">
          <mxGeometry width="30" height="30" as="geometry">
            <mxRectangle width="30" height="30" as="alternateBounds" />
          </mxGeometry>
        </mxCell>
        <mxCell id="KY0VML5P8wNxNONXl5rY-72" value="VEI_CILINDRADAS INT" style="shape=partialRectangle;overflow=hidden;connectable=0;fillColor=none;top=0;left=0;bottom=0;right=0;align=left;spacingLeft=6;fontSize=11;fontFamily=Verdana;shadow=1;labelBackgroundColor=none;strokeColor=#D0CEE2;fontColor=#1A1A1A;fontStyle=0" vertex="1" parent="KY0VML5P8wNxNONXl5rY-70">
          <mxGeometry x="30" width="269" height="30" as="geometry">
            <mxRectangle width="269" height="30" as="alternateBounds" />
          </mxGeometry>
        </mxCell>
        <mxCell id="KY0VML5P8wNxNONXl5rY-73" value="" style="shape=partialRectangle;collapsible=0;dropTarget=0;pointerEvents=0;fillColor=none;points=[[0,0.5],[1,0.5]];portConstraint=eastwest;top=0;left=0;right=0;bottom=0;fontSize=11;fontFamily=Verdana;shadow=1;labelBackgroundColor=none;strokeColor=#D0CEE2;fontColor=#1A1A1A;fontStyle=0" vertex="1" parent="C-vyLk0tnHw3VtMMgP7b-23">
          <mxGeometry y="508" width="299" height="30" as="geometry" />
        </mxCell>
        <mxCell id="KY0VML5P8wNxNONXl5rY-74" value="" style="shape=partialRectangle;overflow=hidden;connectable=0;fillColor=none;top=0;left=0;bottom=0;right=0;fontSize=11;fontFamily=Verdana;shadow=1;labelBackgroundColor=none;strokeColor=#D0CEE2;fontColor=#1A1A1A;fontStyle=0" vertex="1" parent="KY0VML5P8wNxNONXl5rY-73">
          <mxGeometry width="30" height="30" as="geometry">
            <mxRectangle width="30" height="30" as="alternateBounds" />
          </mxGeometry>
        </mxCell>
        <mxCell id="KY0VML5P8wNxNONXl5rY-75" value="VEI_PRECODIARIA DECIMAL(10,2) NOT NULL" style="shape=partialRectangle;overflow=hidden;connectable=0;fillColor=none;top=0;left=0;bottom=0;right=0;align=left;spacingLeft=6;fontSize=11;fontFamily=Verdana;shadow=1;labelBackgroundColor=none;strokeColor=#D0CEE2;fontColor=#1A1A1A;fontStyle=0" vertex="1" parent="KY0VML5P8wNxNONXl5rY-73">
          <mxGeometry x="30" width="269" height="30" as="geometry">
            <mxRectangle width="269" height="30" as="alternateBounds" />
          </mxGeometry>
        </mxCell>
        <mxCell id="KY0VML5P8wNxNONXl5rY-76" value="TB_TIPO_VEICULO" style="shape=table;startSize=30;container=1;collapsible=1;childLayout=tableLayout;fixedRows=1;rowLines=0;fontStyle=0;align=center;resizeLast=1;html=1;verticalAlign=middle;fontFamily=Verdana;fontSize=11;shadow=1;labelBackgroundColor=none;fillColor=#5D7F99;strokeColor=#D0CEE2;fontColor=#1A1A1A;" vertex="1" parent="1">
          <mxGeometry x="272" y="1215" width="258.9999999999998" height="90" as="geometry" />
        </mxCell>
        <mxCell id="KY0VML5P8wNxNONXl5rY-77" value="" style="shape=tableRow;horizontal=0;startSize=0;swimlaneHead=0;swimlaneBody=0;fillColor=none;collapsible=0;dropTarget=0;points=[[0,0.5],[1,0.5]];portConstraint=eastwest;top=0;left=0;right=0;bottom=1;fontFamily=Verdana;fontSize=11;shadow=1;labelBackgroundColor=none;strokeColor=#D0CEE2;fontColor=#1A1A1A;fontStyle=0" vertex="1" parent="KY0VML5P8wNxNONXl5rY-76">
          <mxGeometry y="30" width="258.9999999999998" height="30" as="geometry" />
        </mxCell>
        <mxCell id="KY0VML5P8wNxNONXl5rY-78" value="PK" style="shape=partialRectangle;connectable=0;fillColor=none;top=0;left=0;bottom=0;right=0;fontStyle=0;overflow=hidden;whiteSpace=wrap;html=1;fontFamily=Verdana;fontSize=11;shadow=1;labelBackgroundColor=none;strokeColor=#D0CEE2;fontColor=#1A1A1A;" vertex="1" parent="KY0VML5P8wNxNONXl5rY-77">
          <mxGeometry width="30" height="30" as="geometry">
            <mxRectangle width="30" height="30" as="alternateBounds" />
          </mxGeometry>
        </mxCell>
        <mxCell id="KY0VML5P8wNxNONXl5rY-79" value="TVI_ID SERIAL" style="shape=partialRectangle;connectable=0;fillColor=none;top=0;left=0;bottom=0;right=0;align=left;spacingLeft=6;fontStyle=4;overflow=hidden;whiteSpace=wrap;html=1;fontSize=11;fontFamily=Verdana;shadow=1;labelBackgroundColor=none;strokeColor=#D0CEE2;fontColor=#1A1A1A;" vertex="1" parent="KY0VML5P8wNxNONXl5rY-77">
          <mxGeometry x="30" width="228.99999999999977" height="30" as="geometry">
            <mxRectangle width="228.99999999999977" height="30" as="alternateBounds" />
          </mxGeometry>
        </mxCell>
        <mxCell id="KY0VML5P8wNxNONXl5rY-80" value="" style="shape=tableRow;horizontal=0;startSize=0;swimlaneHead=0;swimlaneBody=0;fillColor=none;collapsible=0;dropTarget=0;points=[[0,0.5],[1,0.5]];portConstraint=eastwest;top=0;left=0;right=0;bottom=0;fontFamily=Verdana;fontSize=11;shadow=1;labelBackgroundColor=none;strokeColor=#D0CEE2;fontColor=#1A1A1A;fontStyle=0" vertex="1" parent="KY0VML5P8wNxNONXl5rY-76">
          <mxGeometry y="60" width="258.9999999999998" height="30" as="geometry" />
        </mxCell>
        <mxCell id="KY0VML5P8wNxNONXl5rY-81" value="" style="shape=partialRectangle;connectable=0;fillColor=none;top=0;left=0;bottom=0;right=0;editable=1;overflow=hidden;whiteSpace=wrap;html=1;fontFamily=Verdana;fontSize=11;shadow=1;labelBackgroundColor=none;strokeColor=#D0CEE2;fontColor=#1A1A1A;fontStyle=0" vertex="1" parent="KY0VML5P8wNxNONXl5rY-80">
          <mxGeometry width="30" height="30" as="geometry">
            <mxRectangle width="30" height="30" as="alternateBounds" />
          </mxGeometry>
        </mxCell>
        <mxCell id="KY0VML5P8wNxNONXl5rY-82" value="TVI_TIPO VARCHAR(20) NOT NULL" style="shape=partialRectangle;connectable=0;fillColor=none;top=0;left=0;bottom=0;right=0;align=left;spacingLeft=6;overflow=hidden;whiteSpace=wrap;html=1;fontSize=11;fontFamily=Verdana;shadow=1;labelBackgroundColor=none;strokeColor=#D0CEE2;fontColor=#1A1A1A;fontStyle=0" vertex="1" parent="KY0VML5P8wNxNONXl5rY-80">
          <mxGeometry x="30" width="228.99999999999977" height="30" as="geometry">
            <mxRectangle width="228.99999999999977" height="30" as="alternateBounds" />
          </mxGeometry>
        </mxCell>
        <mxCell id="KY0VML5P8wNxNONXl5rY-89" value="TB_PESSOA" style="shape=table;startSize=28;container=1;collapsible=1;childLayout=tableLayout;fixedRows=1;rowLines=0;fontStyle=0;align=center;resizeLast=1;html=1;fontSize=11;fontFamily=Verdana;shadow=1;labelBackgroundColor=none;fillColor=#5D7F99;strokeColor=#D0CEE2;fontColor=#1A1A1A;" vertex="1" parent="1">
          <mxGeometry x="1196" y="1462" width="293" height="293" as="geometry" />
        </mxCell>
        <mxCell id="KY0VML5P8wNxNONXl5rY-90" value="" style="shape=tableRow;horizontal=0;startSize=0;swimlaneHead=0;swimlaneBody=0;fillColor=none;collapsible=0;dropTarget=0;points=[[0,0.5],[1,0.5]];portConstraint=eastwest;top=0;left=0;right=0;bottom=1;fontSize=11;fontFamily=Verdana;shadow=1;labelBackgroundColor=none;strokeColor=#D0CEE2;fontColor=#1A1A1A;fontStyle=0" vertex="1" parent="KY0VML5P8wNxNONXl5rY-89">
          <mxGeometry y="28" width="293" height="30" as="geometry" />
        </mxCell>
        <mxCell id="KY0VML5P8wNxNONXl5rY-91" value="PK" style="shape=partialRectangle;connectable=0;fillColor=none;top=0;left=0;bottom=0;right=0;fontStyle=0;overflow=hidden;whiteSpace=wrap;html=1;fontSize=11;fontFamily=Verdana;shadow=1;labelBackgroundColor=none;strokeColor=#D0CEE2;fontColor=#1A1A1A;" vertex="1" parent="KY0VML5P8wNxNONXl5rY-90">
          <mxGeometry width="30" height="30" as="geometry">
            <mxRectangle width="30" height="30" as="alternateBounds" />
          </mxGeometry>
        </mxCell>
        <mxCell id="KY0VML5P8wNxNONXl5rY-92" value="PES_ID SERIAL" style="shape=partialRectangle;connectable=0;fillColor=none;top=0;left=0;bottom=0;right=0;align=left;spacingLeft=6;fontStyle=4;overflow=hidden;whiteSpace=wrap;html=1;fontFamily=Verdana;fontSize=11;shadow=1;labelBackgroundColor=none;strokeColor=#D0CEE2;fontColor=#1A1A1A;" vertex="1" parent="KY0VML5P8wNxNONXl5rY-90">
          <mxGeometry x="30" width="263" height="30" as="geometry">
            <mxRectangle width="263" height="30" as="alternateBounds" />
          </mxGeometry>
        </mxCell>
        <mxCell id="KY0VML5P8wNxNONXl5rY-93" value="" style="shape=tableRow;horizontal=0;startSize=0;swimlaneHead=0;swimlaneBody=0;fillColor=none;collapsible=0;dropTarget=0;points=[[0,0.5],[1,0.5]];portConstraint=eastwest;top=0;left=0;right=0;bottom=0;fontSize=11;fontFamily=Verdana;shadow=1;labelBackgroundColor=none;strokeColor=#D0CEE2;fontColor=#1A1A1A;fontStyle=0" vertex="1" parent="KY0VML5P8wNxNONXl5rY-89">
          <mxGeometry y="58" width="293" height="30" as="geometry" />
        </mxCell>
        <mxCell id="KY0VML5P8wNxNONXl5rY-94" value="" style="shape=partialRectangle;connectable=0;fillColor=none;top=0;left=0;bottom=0;right=0;editable=1;overflow=hidden;whiteSpace=wrap;html=1;fontSize=11;fontFamily=Verdana;shadow=1;labelBackgroundColor=none;strokeColor=#D0CEE2;fontColor=#1A1A1A;fontStyle=0" vertex="1" parent="KY0VML5P8wNxNONXl5rY-93">
          <mxGeometry width="30" height="30" as="geometry">
            <mxRectangle width="30" height="30" as="alternateBounds" />
          </mxGeometry>
        </mxCell>
        <mxCell id="KY0VML5P8wNxNONXl5rY-95" value="PES_NOME VARCHAR(100) NOT NULL" style="shape=partialRectangle;connectable=0;fillColor=none;top=0;left=0;bottom=0;right=0;align=left;spacingLeft=6;overflow=hidden;whiteSpace=wrap;html=1;fontSize=11;fontFamily=Verdana;shadow=1;labelBackgroundColor=none;strokeColor=#D0CEE2;fontColor=#1A1A1A;fontStyle=0" vertex="1" parent="KY0VML5P8wNxNONXl5rY-93">
          <mxGeometry x="30" width="263" height="30" as="geometry">
            <mxRectangle width="263" height="30" as="alternateBounds" />
          </mxGeometry>
        </mxCell>
        <mxCell id="KY0VML5P8wNxNONXl5rY-96" value="" style="shape=tableRow;horizontal=0;startSize=0;swimlaneHead=0;swimlaneBody=0;fillColor=none;collapsible=0;dropTarget=0;points=[[0,0.5],[1,0.5]];portConstraint=eastwest;top=0;left=0;right=0;bottom=0;fontSize=11;fontFamily=Verdana;shadow=1;labelBackgroundColor=none;strokeColor=#D0CEE2;fontColor=#1A1A1A;fontStyle=0" vertex="1" parent="KY0VML5P8wNxNONXl5rY-89">
          <mxGeometry y="88" width="293" height="28" as="geometry" />
        </mxCell>
        <mxCell id="KY0VML5P8wNxNONXl5rY-97" value="" style="shape=partialRectangle;connectable=0;fillColor=none;top=0;left=0;bottom=0;right=0;editable=1;overflow=hidden;whiteSpace=wrap;html=1;fontSize=11;fontFamily=Verdana;shadow=1;labelBackgroundColor=none;strokeColor=#D0CEE2;fontColor=#1A1A1A;fontStyle=0" vertex="1" parent="KY0VML5P8wNxNONXl5rY-96">
          <mxGeometry width="30" height="28" as="geometry">
            <mxRectangle width="30" height="28" as="alternateBounds" />
          </mxGeometry>
        </mxCell>
        <mxCell id="KY0VML5P8wNxNONXl5rY-98" value="PES_NRODOC VARCHAR(14) NOT NULL UNIQUE" style="shape=partialRectangle;connectable=0;fillColor=none;top=0;left=0;bottom=0;right=0;align=left;spacingLeft=6;overflow=hidden;whiteSpace=wrap;html=1;fontSize=11;fontFamily=Verdana;shadow=1;labelBackgroundColor=none;strokeColor=#D0CEE2;fontColor=#1A1A1A;fontStyle=0" vertex="1" parent="KY0VML5P8wNxNONXl5rY-96">
          <mxGeometry x="30" width="263" height="28" as="geometry">
            <mxRectangle width="263" height="28" as="alternateBounds" />
          </mxGeometry>
        </mxCell>
        <mxCell id="KY0VML5P8wNxNONXl5rY-99" value="" style="shape=tableRow;horizontal=0;startSize=0;swimlaneHead=0;swimlaneBody=0;fillColor=none;collapsible=0;dropTarget=0;points=[[0,0.5],[1,0.5]];portConstraint=eastwest;top=0;left=0;right=0;bottom=0;fontSize=11;fontFamily=Verdana;shadow=1;labelBackgroundColor=none;strokeColor=#D0CEE2;fontColor=#1A1A1A;fontStyle=0" vertex="1" parent="KY0VML5P8wNxNONXl5rY-89">
          <mxGeometry y="116" width="293" height="30" as="geometry" />
        </mxCell>
        <mxCell id="KY0VML5P8wNxNONXl5rY-100" value="" style="shape=partialRectangle;connectable=0;fillColor=none;top=0;left=0;bottom=0;right=0;editable=1;overflow=hidden;whiteSpace=wrap;html=1;fontSize=11;fontFamily=Verdana;shadow=1;labelBackgroundColor=none;strokeColor=#D0CEE2;fontColor=#1A1A1A;fontStyle=0" vertex="1" parent="KY0VML5P8wNxNONXl5rY-99">
          <mxGeometry width="30" height="30" as="geometry">
            <mxRectangle width="30" height="30" as="alternateBounds" />
          </mxGeometry>
        </mxCell>
        <mxCell id="KY0VML5P8wNxNONXl5rY-101" value="PES_NROCNH VARCHAR(10) NOT NULL UNIQUE" style="shape=partialRectangle;connectable=0;fillColor=none;top=0;left=0;bottom=0;right=0;align=left;spacingLeft=6;overflow=hidden;whiteSpace=wrap;html=1;fontSize=11;fontFamily=Verdana;shadow=1;labelBackgroundColor=none;strokeColor=#D0CEE2;fontColor=#1A1A1A;fontStyle=0" vertex="1" parent="KY0VML5P8wNxNONXl5rY-99">
          <mxGeometry x="30" width="263" height="30" as="geometry">
            <mxRectangle width="263" height="30" as="alternateBounds" />
          </mxGeometry>
        </mxCell>
        <mxCell id="KY0VML5P8wNxNONXl5rY-102" value="" style="shape=tableRow;horizontal=0;startSize=0;swimlaneHead=0;swimlaneBody=0;fillColor=none;collapsible=0;dropTarget=0;points=[[0,0.5],[1,0.5]];portConstraint=eastwest;top=0;left=0;right=0;bottom=0;fontSize=11;fontFamily=Verdana;shadow=1;labelBackgroundColor=none;strokeColor=#D0CEE2;fontColor=#1A1A1A;fontStyle=0" vertex="1" parent="KY0VML5P8wNxNONXl5rY-89">
          <mxGeometry y="146" width="293" height="30" as="geometry" />
        </mxCell>
        <mxCell id="KY0VML5P8wNxNONXl5rY-103" value="" style="shape=partialRectangle;connectable=0;fillColor=none;top=0;left=0;bottom=0;right=0;editable=1;overflow=hidden;whiteSpace=wrap;html=1;fontSize=11;fontFamily=Verdana;shadow=1;labelBackgroundColor=none;strokeColor=#D0CEE2;fontColor=#1A1A1A;fontStyle=0" vertex="1" parent="KY0VML5P8wNxNONXl5rY-102">
          <mxGeometry width="30" height="30" as="geometry">
            <mxRectangle width="30" height="30" as="alternateBounds" />
          </mxGeometry>
        </mxCell>
        <mxCell id="KY0VML5P8wNxNONXl5rY-104" value="PES_DATANAS DATE" style="shape=partialRectangle;connectable=0;fillColor=none;top=0;left=0;bottom=0;right=0;align=left;spacingLeft=6;overflow=hidden;whiteSpace=wrap;html=1;fontSize=11;fontFamily=Verdana;shadow=1;labelBackgroundColor=none;strokeColor=#D0CEE2;fontColor=#1A1A1A;fontStyle=0" vertex="1" parent="KY0VML5P8wNxNONXl5rY-102">
          <mxGeometry x="30" width="263" height="30" as="geometry">
            <mxRectangle width="263" height="30" as="alternateBounds" />
          </mxGeometry>
        </mxCell>
        <mxCell id="KY0VML5P8wNxNONXl5rY-105" value="" style="shape=tableRow;horizontal=0;startSize=0;swimlaneHead=0;swimlaneBody=0;fillColor=none;collapsible=0;dropTarget=0;points=[[0,0.5],[1,0.5]];portConstraint=eastwest;top=0;left=0;right=0;bottom=0;fontSize=11;fontFamily=Verdana;shadow=1;labelBackgroundColor=none;strokeColor=#D0CEE2;fontColor=#1A1A1A;fontStyle=0" vertex="1" parent="KY0VML5P8wNxNONXl5rY-89">
          <mxGeometry y="176" width="293" height="30" as="geometry" />
        </mxCell>
        <mxCell id="KY0VML5P8wNxNONXl5rY-106" value="FK" style="shape=partialRectangle;connectable=0;fillColor=none;top=0;left=0;bottom=0;right=0;editable=1;overflow=hidden;whiteSpace=wrap;html=1;fontSize=11;fontFamily=Verdana;shadow=1;labelBackgroundColor=none;strokeColor=#D0CEE2;fontColor=#1A1A1A;fontStyle=0" vertex="1" parent="KY0VML5P8wNxNONXl5rY-105">
          <mxGeometry width="30" height="30" as="geometry">
            <mxRectangle width="30" height="30" as="alternateBounds" />
          </mxGeometry>
        </mxCell>
        <mxCell id="KY0VML5P8wNxNONXl5rY-107" value="PES_EPEID INT NOT NULL" style="shape=partialRectangle;connectable=0;fillColor=none;top=0;left=0;bottom=0;right=0;align=left;spacingLeft=6;overflow=hidden;whiteSpace=wrap;html=1;fontSize=11;fontFamily=Verdana;shadow=1;labelBackgroundColor=none;strokeColor=#D0CEE2;fontColor=#1A1A1A;fontStyle=0" vertex="1" parent="KY0VML5P8wNxNONXl5rY-105">
          <mxGeometry x="30" width="263" height="30" as="geometry">
            <mxRectangle width="263" height="30" as="alternateBounds" />
          </mxGeometry>
        </mxCell>
        <mxCell id="KY0VML5P8wNxNONXl5rY-108" value="" style="shape=tableRow;horizontal=0;startSize=0;swimlaneHead=0;swimlaneBody=0;fillColor=none;collapsible=0;dropTarget=0;points=[[0,0.5],[1,0.5]];portConstraint=eastwest;top=0;left=0;right=0;bottom=0;fontSize=11;fontFamily=Verdana;shadow=1;labelBackgroundColor=none;strokeColor=#D0CEE2;fontColor=#1A1A1A;fontStyle=0" vertex="1" parent="KY0VML5P8wNxNONXl5rY-89">
          <mxGeometry y="206" width="293" height="27" as="geometry" />
        </mxCell>
        <mxCell id="KY0VML5P8wNxNONXl5rY-109" value="" style="shape=partialRectangle;connectable=0;fillColor=none;top=0;left=0;bottom=0;right=0;editable=1;overflow=hidden;whiteSpace=wrap;html=1;fontSize=11;fontFamily=Verdana;shadow=1;labelBackgroundColor=none;strokeColor=#D0CEE2;fontColor=#1A1A1A;fontStyle=0" vertex="1" parent="KY0VML5P8wNxNONXl5rY-108">
          <mxGeometry width="30" height="27" as="geometry">
            <mxRectangle width="30" height="27" as="alternateBounds" />
          </mxGeometry>
        </mxCell>
        <mxCell id="KY0VML5P8wNxNONXl5rY-110" value="PES_TEL VARCHAR(20)" style="shape=partialRectangle;connectable=0;fillColor=none;top=0;left=0;bottom=0;right=0;align=left;spacingLeft=6;overflow=hidden;whiteSpace=wrap;html=1;fontSize=11;fontFamily=Verdana;shadow=1;labelBackgroundColor=none;strokeColor=#D0CEE2;fontColor=#1A1A1A;fontStyle=0" vertex="1" parent="KY0VML5P8wNxNONXl5rY-108">
          <mxGeometry x="30" width="263" height="27" as="geometry">
            <mxRectangle width="263" height="27" as="alternateBounds" />
          </mxGeometry>
        </mxCell>
        <mxCell id="KY0VML5P8wNxNONXl5rY-111" value="" style="shape=tableRow;horizontal=0;startSize=0;swimlaneHead=0;swimlaneBody=0;fillColor=none;collapsible=0;dropTarget=0;points=[[0,0.5],[1,0.5]];portConstraint=eastwest;top=0;left=0;right=0;bottom=0;fontSize=11;fontFamily=Verdana;shadow=1;labelBackgroundColor=none;strokeColor=#D0CEE2;fontColor=#1A1A1A;fontStyle=0" vertex="1" parent="KY0VML5P8wNxNONXl5rY-89">
          <mxGeometry y="233" width="293" height="30" as="geometry" />
        </mxCell>
        <mxCell id="KY0VML5P8wNxNONXl5rY-112" value="" style="shape=partialRectangle;connectable=0;fillColor=none;top=0;left=0;bottom=0;right=0;editable=1;overflow=hidden;whiteSpace=wrap;html=1;fontSize=11;fontFamily=Verdana;shadow=1;labelBackgroundColor=none;strokeColor=#D0CEE2;fontColor=#1A1A1A;fontStyle=0" vertex="1" parent="KY0VML5P8wNxNONXl5rY-111">
          <mxGeometry width="30" height="30" as="geometry">
            <mxRectangle width="30" height="30" as="alternateBounds" />
          </mxGeometry>
        </mxCell>
        <mxCell id="KY0VML5P8wNxNONXl5rY-113" value="PES_EMAIL VARCHAR(50)" style="shape=partialRectangle;connectable=0;fillColor=none;top=0;left=0;bottom=0;right=0;align=left;spacingLeft=6;overflow=hidden;whiteSpace=wrap;html=1;fontSize=11;fontFamily=Verdana;shadow=1;labelBackgroundColor=none;strokeColor=#D0CEE2;fontColor=#1A1A1A;fontStyle=0" vertex="1" parent="KY0VML5P8wNxNONXl5rY-111">
          <mxGeometry x="30" width="263" height="30" as="geometry">
            <mxRectangle width="263" height="30" as="alternateBounds" />
          </mxGeometry>
        </mxCell>
        <mxCell id="KY0VML5P8wNxNONXl5rY-114" value="" style="shape=tableRow;horizontal=0;startSize=0;swimlaneHead=0;swimlaneBody=0;fillColor=none;collapsible=0;dropTarget=0;points=[[0,0.5],[1,0.5]];portConstraint=eastwest;top=0;left=0;right=0;bottom=0;fontSize=11;fontFamily=Verdana;shadow=1;labelBackgroundColor=none;strokeColor=#D0CEE2;fontColor=#1A1A1A;fontStyle=0" vertex="1" parent="KY0VML5P8wNxNONXl5rY-89">
          <mxGeometry y="263" width="293" height="26" as="geometry" />
        </mxCell>
        <mxCell id="KY0VML5P8wNxNONXl5rY-115" value="" style="shape=partialRectangle;connectable=0;fillColor=none;top=0;left=0;bottom=0;right=0;editable=1;overflow=hidden;whiteSpace=wrap;html=1;fontSize=11;fontFamily=Verdana;shadow=1;labelBackgroundColor=none;strokeColor=#D0CEE2;fontColor=#1A1A1A;fontStyle=0" vertex="1" parent="KY0VML5P8wNxNONXl5rY-114">
          <mxGeometry width="30" height="26" as="geometry">
            <mxRectangle width="30" height="26" as="alternateBounds" />
          </mxGeometry>
        </mxCell>
        <mxCell id="KY0VML5P8wNxNONXl5rY-116" value="PES_DATCADASTRO DATE NOT NULL" style="shape=partialRectangle;connectable=0;fillColor=none;top=0;left=0;bottom=0;right=0;align=left;spacingLeft=6;overflow=hidden;whiteSpace=wrap;html=1;fontSize=11;fontFamily=Verdana;shadow=1;labelBackgroundColor=none;strokeColor=#D0CEE2;fontColor=#1A1A1A;fontStyle=0" vertex="1" parent="KY0VML5P8wNxNONXl5rY-114">
          <mxGeometry x="30" width="263" height="26" as="geometry">
            <mxRectangle width="263" height="26" as="alternateBounds" />
          </mxGeometry>
        </mxCell>
        <mxCell id="KY0VML5P8wNxNONXl5rY-117" value="TB_ENDERECO_PESSOA" style="shape=table;startSize=30;container=1;collapsible=1;childLayout=tableLayout;fixedRows=1;rowLines=0;fontStyle=0;align=center;resizeLast=1;html=1;fontFamily=Verdana;fontSize=11;shadow=1;labelBackgroundColor=none;fillColor=#5D7F99;strokeColor=#D0CEE2;fontColor=#1A1A1A;" vertex="1" parent="1">
          <mxGeometry x="1207" y="1174" width="273" height="205" as="geometry" />
        </mxCell>
        <mxCell id="KY0VML5P8wNxNONXl5rY-118" value="" style="shape=tableRow;horizontal=0;startSize=0;swimlaneHead=0;swimlaneBody=0;fillColor=none;collapsible=0;dropTarget=0;points=[[0,0.5],[1,0.5]];portConstraint=eastwest;top=0;left=0;right=0;bottom=1;fontFamily=Verdana;fontSize=11;shadow=1;labelBackgroundColor=none;strokeColor=#D0CEE2;fontColor=#1A1A1A;fontStyle=0" vertex="1" parent="KY0VML5P8wNxNONXl5rY-117">
          <mxGeometry y="30" width="273" height="30" as="geometry" />
        </mxCell>
        <mxCell id="KY0VML5P8wNxNONXl5rY-119" value="PK" style="shape=partialRectangle;connectable=0;fillColor=none;top=0;left=0;bottom=0;right=0;fontStyle=0;overflow=hidden;whiteSpace=wrap;html=1;fontFamily=Verdana;fontSize=11;shadow=1;labelBackgroundColor=none;strokeColor=#D0CEE2;fontColor=#1A1A1A;" vertex="1" parent="KY0VML5P8wNxNONXl5rY-118">
          <mxGeometry width="30" height="30" as="geometry">
            <mxRectangle width="30" height="30" as="alternateBounds" />
          </mxGeometry>
        </mxCell>
        <mxCell id="KY0VML5P8wNxNONXl5rY-120" value="EPE_ID SERIAL" style="shape=partialRectangle;connectable=0;fillColor=none;top=0;left=0;bottom=0;right=0;align=left;spacingLeft=6;fontStyle=4;overflow=hidden;whiteSpace=wrap;html=1;fontFamily=Verdana;fontSize=11;shadow=1;labelBackgroundColor=none;strokeColor=#D0CEE2;fontColor=#1A1A1A;" vertex="1" parent="KY0VML5P8wNxNONXl5rY-118">
          <mxGeometry x="30" width="243" height="30" as="geometry">
            <mxRectangle width="243" height="30" as="alternateBounds" />
          </mxGeometry>
        </mxCell>
        <mxCell id="KY0VML5P8wNxNONXl5rY-121" value="" style="shape=tableRow;horizontal=0;startSize=0;swimlaneHead=0;swimlaneBody=0;fillColor=none;collapsible=0;dropTarget=0;points=[[0,0.5],[1,0.5]];portConstraint=eastwest;top=0;left=0;right=0;bottom=0;fontSize=11;fontFamily=Verdana;shadow=1;labelBackgroundColor=none;strokeColor=#D0CEE2;fontColor=#1A1A1A;fontStyle=0" vertex="1" parent="KY0VML5P8wNxNONXl5rY-117">
          <mxGeometry y="60" width="273" height="25" as="geometry" />
        </mxCell>
        <mxCell id="KY0VML5P8wNxNONXl5rY-122" value="" style="shape=partialRectangle;connectable=0;fillColor=none;top=0;left=0;bottom=0;right=0;editable=1;overflow=hidden;whiteSpace=wrap;html=1;fontSize=11;fontFamily=Verdana;shadow=1;labelBackgroundColor=none;strokeColor=#D0CEE2;fontColor=#1A1A1A;fontStyle=0" vertex="1" parent="KY0VML5P8wNxNONXl5rY-121">
          <mxGeometry width="30" height="25" as="geometry">
            <mxRectangle width="30" height="25" as="alternateBounds" />
          </mxGeometry>
        </mxCell>
        <mxCell id="KY0VML5P8wNxNONXl5rY-123" value="EPE_NOMRUA VARCHAR(100) NOT NULL" style="shape=partialRectangle;connectable=0;fillColor=none;top=0;left=0;bottom=0;right=0;align=left;spacingLeft=6;overflow=hidden;whiteSpace=wrap;html=1;fontSize=11;fontFamily=Verdana;shadow=1;labelBackgroundColor=none;strokeColor=#D0CEE2;fontColor=#1A1A1A;fontStyle=0" vertex="1" parent="KY0VML5P8wNxNONXl5rY-121">
          <mxGeometry x="30" width="243" height="25" as="geometry">
            <mxRectangle width="243" height="25" as="alternateBounds" />
          </mxGeometry>
        </mxCell>
        <mxCell id="KY0VML5P8wNxNONXl5rY-124" value="" style="shape=tableRow;horizontal=0;startSize=0;swimlaneHead=0;swimlaneBody=0;fillColor=none;collapsible=0;dropTarget=0;points=[[0,0.5],[1,0.5]];portConstraint=eastwest;top=0;left=0;right=0;bottom=0;fontSize=11;fontFamily=Verdana;shadow=1;labelBackgroundColor=none;strokeColor=#D0CEE2;fontColor=#1A1A1A;fontStyle=0" vertex="1" parent="KY0VML5P8wNxNONXl5rY-117">
          <mxGeometry y="85" width="273" height="30" as="geometry" />
        </mxCell>
        <mxCell id="KY0VML5P8wNxNONXl5rY-125" value="" style="shape=partialRectangle;connectable=0;fillColor=none;top=0;left=0;bottom=0;right=0;editable=1;overflow=hidden;whiteSpace=wrap;html=1;fontSize=11;fontFamily=Verdana;shadow=1;labelBackgroundColor=none;strokeColor=#D0CEE2;fontColor=#1A1A1A;fontStyle=0" vertex="1" parent="KY0VML5P8wNxNONXl5rY-124">
          <mxGeometry width="30" height="30" as="geometry">
            <mxRectangle width="30" height="30" as="alternateBounds" />
          </mxGeometry>
        </mxCell>
        <mxCell id="KY0VML5P8wNxNONXl5rY-126" value="EDE_NRO VARCHAR(20) NOT NULL" style="shape=partialRectangle;connectable=0;fillColor=none;top=0;left=0;bottom=0;right=0;align=left;spacingLeft=6;overflow=hidden;whiteSpace=wrap;html=1;fontSize=11;fontFamily=Verdana;shadow=1;labelBackgroundColor=none;strokeColor=#D0CEE2;fontColor=#1A1A1A;fontStyle=0" vertex="1" parent="KY0VML5P8wNxNONXl5rY-124">
          <mxGeometry x="30" width="243" height="30" as="geometry">
            <mxRectangle width="243" height="30" as="alternateBounds" />
          </mxGeometry>
        </mxCell>
        <mxCell id="KY0VML5P8wNxNONXl5rY-127" value="" style="shape=tableRow;horizontal=0;startSize=0;swimlaneHead=0;swimlaneBody=0;fillColor=none;collapsible=0;dropTarget=0;points=[[0,0.5],[1,0.5]];portConstraint=eastwest;top=0;left=0;right=0;bottom=0;fontSize=11;fontFamily=Verdana;shadow=1;labelBackgroundColor=none;strokeColor=#D0CEE2;fontColor=#1A1A1A;fontStyle=0" vertex="1" parent="KY0VML5P8wNxNONXl5rY-117">
          <mxGeometry y="115" width="273" height="30" as="geometry" />
        </mxCell>
        <mxCell id="KY0VML5P8wNxNONXl5rY-128" value="" style="shape=partialRectangle;connectable=0;fillColor=none;top=0;left=0;bottom=0;right=0;editable=1;overflow=hidden;whiteSpace=wrap;html=1;fontSize=11;fontFamily=Verdana;shadow=1;labelBackgroundColor=none;strokeColor=#D0CEE2;fontColor=#1A1A1A;fontStyle=0" vertex="1" parent="KY0VML5P8wNxNONXl5rY-127">
          <mxGeometry width="30" height="30" as="geometry">
            <mxRectangle width="30" height="30" as="alternateBounds" />
          </mxGeometry>
        </mxCell>
        <mxCell id="KY0VML5P8wNxNONXl5rY-129" value="EDE_COMPLEMENTO VARCHAR(50)" style="shape=partialRectangle;connectable=0;fillColor=none;top=0;left=0;bottom=0;right=0;align=left;spacingLeft=6;overflow=hidden;whiteSpace=wrap;html=1;fontSize=11;fontFamily=Verdana;shadow=1;labelBackgroundColor=none;strokeColor=#D0CEE2;fontColor=#1A1A1A;fontStyle=0" vertex="1" parent="KY0VML5P8wNxNONXl5rY-127">
          <mxGeometry x="30" width="243" height="30" as="geometry">
            <mxRectangle width="243" height="30" as="alternateBounds" />
          </mxGeometry>
        </mxCell>
        <mxCell id="KY0VML5P8wNxNONXl5rY-130" value="" style="shape=tableRow;horizontal=0;startSize=0;swimlaneHead=0;swimlaneBody=0;fillColor=none;collapsible=0;dropTarget=0;points=[[0,0.5],[1,0.5]];portConstraint=eastwest;top=0;left=0;right=0;bottom=0;fontSize=11;fontFamily=Verdana;shadow=1;labelBackgroundColor=none;strokeColor=#D0CEE2;fontColor=#1A1A1A;fontStyle=0" vertex="1" parent="KY0VML5P8wNxNONXl5rY-117">
          <mxGeometry y="145" width="273" height="30" as="geometry" />
        </mxCell>
        <mxCell id="KY0VML5P8wNxNONXl5rY-131" value="" style="shape=partialRectangle;connectable=0;fillColor=none;top=0;left=0;bottom=0;right=0;editable=1;overflow=hidden;whiteSpace=wrap;html=1;fontSize=11;fontFamily=Verdana;shadow=1;labelBackgroundColor=none;strokeColor=#D0CEE2;fontColor=#1A1A1A;fontStyle=0" vertex="1" parent="KY0VML5P8wNxNONXl5rY-130">
          <mxGeometry width="30" height="30" as="geometry">
            <mxRectangle width="30" height="30" as="alternateBounds" />
          </mxGeometry>
        </mxCell>
        <mxCell id="KY0VML5P8wNxNONXl5rY-132" value="EDE_CEP VARCHAR(9) NOT NULL" style="shape=partialRectangle;connectable=0;fillColor=none;top=0;left=0;bottom=0;right=0;align=left;spacingLeft=6;overflow=hidden;whiteSpace=wrap;html=1;fontSize=11;fontFamily=Verdana;shadow=1;labelBackgroundColor=none;strokeColor=#D0CEE2;fontColor=#1A1A1A;fontStyle=0" vertex="1" parent="KY0VML5P8wNxNONXl5rY-130">
          <mxGeometry x="30" width="243" height="30" as="geometry">
            <mxRectangle width="243" height="30" as="alternateBounds" />
          </mxGeometry>
        </mxCell>
        <mxCell id="KY0VML5P8wNxNONXl5rY-133" value="" style="shape=tableRow;horizontal=0;startSize=0;swimlaneHead=0;swimlaneBody=0;fillColor=none;collapsible=0;dropTarget=0;points=[[0,0.5],[1,0.5]];portConstraint=eastwest;top=0;left=0;right=0;bottom=0;fontSize=11;fontFamily=Verdana;shadow=1;labelBackgroundColor=none;strokeColor=#D0CEE2;fontColor=#1A1A1A;fontStyle=0" vertex="1" parent="KY0VML5P8wNxNONXl5rY-117">
          <mxGeometry y="175" width="273" height="30" as="geometry" />
        </mxCell>
        <mxCell id="KY0VML5P8wNxNONXl5rY-134" value="FK" style="shape=partialRectangle;connectable=0;fillColor=none;top=0;left=0;bottom=0;right=0;editable=1;overflow=hidden;whiteSpace=wrap;html=1;fontSize=11;fontFamily=Verdana;shadow=1;labelBackgroundColor=none;strokeColor=#D0CEE2;fontColor=#1A1A1A;fontStyle=0" vertex="1" parent="KY0VML5P8wNxNONXl5rY-133">
          <mxGeometry width="30" height="30" as="geometry">
            <mxRectangle width="30" height="30" as="alternateBounds" />
          </mxGeometry>
        </mxCell>
        <mxCell id="KY0VML5P8wNxNONXl5rY-135" value="EDE_MUNID INT NOT NULL" style="shape=partialRectangle;connectable=0;fillColor=none;top=0;left=0;bottom=0;right=0;align=left;spacingLeft=6;overflow=hidden;whiteSpace=wrap;html=1;fontSize=11;fontFamily=Verdana;shadow=1;labelBackgroundColor=none;strokeColor=#D0CEE2;fontColor=#1A1A1A;fontStyle=0" vertex="1" parent="KY0VML5P8wNxNONXl5rY-133">
          <mxGeometry x="30" width="243" height="30" as="geometry">
            <mxRectangle width="243" height="30" as="alternateBounds" />
          </mxGeometry>
        </mxCell>
        <mxCell id="KY0VML5P8wNxNONXl5rY-142" value="TB_MUNICIPIO" style="shape=table;startSize=31;container=1;collapsible=1;childLayout=tableLayout;fixedRows=1;rowLines=0;fontStyle=0;align=center;resizeLast=1;html=1;fontFamily=Verdana;fontSize=11;shadow=1;labelBackgroundColor=none;fillColor=#5D7F99;strokeColor=#D0CEE2;fontColor=#1A1A1A;" vertex="1" parent="1">
          <mxGeometry x="1647" y="1318" width="261" height="121" as="geometry" />
        </mxCell>
        <mxCell id="KY0VML5P8wNxNONXl5rY-143" value="" style="shape=tableRow;horizontal=0;startSize=0;swimlaneHead=0;swimlaneBody=0;fillColor=none;collapsible=0;dropTarget=0;points=[[0,0.5],[1,0.5]];portConstraint=eastwest;top=0;left=0;right=0;bottom=1;fontFamily=Verdana;fontSize=11;shadow=1;labelBackgroundColor=none;strokeColor=#D0CEE2;fontColor=#1A1A1A;fontStyle=0" vertex="1" parent="KY0VML5P8wNxNONXl5rY-142">
          <mxGeometry y="31" width="261" height="30" as="geometry" />
        </mxCell>
        <mxCell id="KY0VML5P8wNxNONXl5rY-144" value="PK" style="shape=partialRectangle;connectable=0;fillColor=none;top=0;left=0;bottom=0;right=0;fontStyle=0;overflow=hidden;whiteSpace=wrap;html=1;fontFamily=Verdana;fontSize=11;shadow=1;labelBackgroundColor=none;strokeColor=#D0CEE2;fontColor=#1A1A1A;" vertex="1" parent="KY0VML5P8wNxNONXl5rY-143">
          <mxGeometry width="30" height="30" as="geometry">
            <mxRectangle width="30" height="30" as="alternateBounds" />
          </mxGeometry>
        </mxCell>
        <mxCell id="KY0VML5P8wNxNONXl5rY-145" value="MUN_ID SERIAL" style="shape=partialRectangle;connectable=0;fillColor=none;top=0;left=0;bottom=0;right=0;align=left;spacingLeft=6;fontStyle=4;overflow=hidden;whiteSpace=wrap;html=1;fontFamily=Verdana;fontSize=11;shadow=1;labelBackgroundColor=none;strokeColor=#D0CEE2;fontColor=#1A1A1A;" vertex="1" parent="KY0VML5P8wNxNONXl5rY-143">
          <mxGeometry x="30" width="231" height="30" as="geometry">
            <mxRectangle width="231" height="30" as="alternateBounds" />
          </mxGeometry>
        </mxCell>
        <mxCell id="KY0VML5P8wNxNONXl5rY-146" value="" style="shape=tableRow;horizontal=0;startSize=0;swimlaneHead=0;swimlaneBody=0;fillColor=none;collapsible=0;dropTarget=0;points=[[0,0.5],[1,0.5]];portConstraint=eastwest;top=0;left=0;right=0;bottom=0;fontFamily=Verdana;fontSize=11;shadow=1;labelBackgroundColor=none;strokeColor=#D0CEE2;fontColor=#1A1A1A;fontStyle=0" vertex="1" parent="KY0VML5P8wNxNONXl5rY-142">
          <mxGeometry y="61" width="261" height="30" as="geometry" />
        </mxCell>
        <mxCell id="KY0VML5P8wNxNONXl5rY-147" value="" style="shape=partialRectangle;connectable=0;fillColor=none;top=0;left=0;bottom=0;right=0;editable=1;overflow=hidden;whiteSpace=wrap;html=1;fontFamily=Verdana;fontSize=11;shadow=1;labelBackgroundColor=none;strokeColor=#D0CEE2;fontColor=#1A1A1A;fontStyle=0" vertex="1" parent="KY0VML5P8wNxNONXl5rY-146">
          <mxGeometry width="30" height="30" as="geometry">
            <mxRectangle width="30" height="30" as="alternateBounds" />
          </mxGeometry>
        </mxCell>
        <mxCell id="KY0VML5P8wNxNONXl5rY-148" value="MUN_NOME VARCHAR(40) NOT NULL" style="shape=partialRectangle;connectable=0;fillColor=none;top=0;left=0;bottom=0;right=0;align=left;spacingLeft=6;overflow=hidden;whiteSpace=wrap;html=1;fontFamily=Verdana;fontSize=11;shadow=1;labelBackgroundColor=none;strokeColor=#D0CEE2;fontColor=#1A1A1A;fontStyle=0" vertex="1" parent="KY0VML5P8wNxNONXl5rY-146">
          <mxGeometry x="30" width="231" height="30" as="geometry">
            <mxRectangle width="231" height="30" as="alternateBounds" />
          </mxGeometry>
        </mxCell>
        <mxCell id="KY0VML5P8wNxNONXl5rY-149" value="" style="shape=tableRow;horizontal=0;startSize=0;swimlaneHead=0;swimlaneBody=0;fillColor=none;collapsible=0;dropTarget=0;points=[[0,0.5],[1,0.5]];portConstraint=eastwest;top=0;left=0;right=0;bottom=0;fontFamily=Verdana;fontSize=11;shadow=1;labelBackgroundColor=none;strokeColor=#D0CEE2;fontColor=#1A1A1A;fontStyle=0" vertex="1" parent="KY0VML5P8wNxNONXl5rY-142">
          <mxGeometry y="91" width="261" height="30" as="geometry" />
        </mxCell>
        <mxCell id="KY0VML5P8wNxNONXl5rY-150" value="FK" style="shape=partialRectangle;connectable=0;fillColor=none;top=0;left=0;bottom=0;right=0;editable=1;overflow=hidden;whiteSpace=wrap;html=1;fontFamily=Verdana;fontSize=11;shadow=1;labelBackgroundColor=none;strokeColor=#D0CEE2;fontColor=#1A1A1A;fontStyle=0" vertex="1" parent="KY0VML5P8wNxNONXl5rY-149">
          <mxGeometry width="30" height="30" as="geometry">
            <mxRectangle width="30" height="30" as="alternateBounds" />
          </mxGeometry>
        </mxCell>
        <mxCell id="KY0VML5P8wNxNONXl5rY-151" value="MUN_EFEID INT NOT NULL" style="shape=partialRectangle;connectable=0;fillColor=none;top=0;left=0;bottom=0;right=0;align=left;spacingLeft=6;overflow=hidden;whiteSpace=wrap;html=1;fontFamily=Verdana;fontSize=11;shadow=1;labelBackgroundColor=none;strokeColor=#D0CEE2;fontColor=#1A1A1A;fontStyle=0" vertex="1" parent="KY0VML5P8wNxNONXl5rY-149">
          <mxGeometry x="30" width="231" height="30" as="geometry">
            <mxRectangle width="231" height="30" as="alternateBounds" />
          </mxGeometry>
        </mxCell>
        <mxCell id="KY0VML5P8wNxNONXl5rY-155" value="TB_ESTADO_FEDERACAO" style="shape=table;startSize=30;container=1;collapsible=1;childLayout=tableLayout;fixedRows=1;rowLines=0;fontStyle=0;align=center;resizeLast=1;html=1;fontFamily=Verdana;fontSize=11;shadow=1;labelBackgroundColor=none;fillColor=#5D7F99;strokeColor=#D0CEE2;fontColor=#1A1A1A;" vertex="1" parent="1">
          <mxGeometry x="1646" y="1479" width="254" height="147" as="geometry" />
        </mxCell>
        <mxCell id="KY0VML5P8wNxNONXl5rY-156" value="" style="shape=tableRow;horizontal=0;startSize=0;swimlaneHead=0;swimlaneBody=0;fillColor=none;collapsible=0;dropTarget=0;points=[[0,0.5],[1,0.5]];portConstraint=eastwest;top=0;left=0;right=0;bottom=1;fontFamily=Verdana;fontSize=11;shadow=1;labelBackgroundColor=none;strokeColor=#D0CEE2;fontColor=#1A1A1A;fontStyle=0" vertex="1" parent="KY0VML5P8wNxNONXl5rY-155">
          <mxGeometry y="30" width="254" height="27" as="geometry" />
        </mxCell>
        <mxCell id="KY0VML5P8wNxNONXl5rY-157" value="PK" style="shape=partialRectangle;connectable=0;fillColor=none;top=0;left=0;bottom=0;right=0;fontStyle=0;overflow=hidden;whiteSpace=wrap;html=1;fontFamily=Verdana;fontSize=11;shadow=1;labelBackgroundColor=none;strokeColor=#D0CEE2;fontColor=#1A1A1A;" vertex="1" parent="KY0VML5P8wNxNONXl5rY-156">
          <mxGeometry width="30" height="27" as="geometry">
            <mxRectangle width="30" height="27" as="alternateBounds" />
          </mxGeometry>
        </mxCell>
        <mxCell id="KY0VML5P8wNxNONXl5rY-158" value="EFE_ID SERIAL&amp;nbsp;" style="shape=partialRectangle;connectable=0;fillColor=none;top=0;left=0;bottom=0;right=0;align=left;spacingLeft=6;fontStyle=4;overflow=hidden;whiteSpace=wrap;html=1;fontFamily=Verdana;fontSize=11;shadow=1;labelBackgroundColor=none;strokeColor=#D0CEE2;fontColor=#1A1A1A;" vertex="1" parent="KY0VML5P8wNxNONXl5rY-156">
          <mxGeometry x="30" width="224" height="27" as="geometry">
            <mxRectangle width="224" height="27" as="alternateBounds" />
          </mxGeometry>
        </mxCell>
        <mxCell id="KY0VML5P8wNxNONXl5rY-159" value="" style="shape=tableRow;horizontal=0;startSize=0;swimlaneHead=0;swimlaneBody=0;fillColor=none;collapsible=0;dropTarget=0;points=[[0,0.5],[1,0.5]];portConstraint=eastwest;top=0;left=0;right=0;bottom=0;fontFamily=Verdana;fontSize=11;shadow=1;labelBackgroundColor=none;strokeColor=#D0CEE2;fontColor=#1A1A1A;fontStyle=0" vertex="1" parent="KY0VML5P8wNxNONXl5rY-155">
          <mxGeometry y="57" width="254" height="30" as="geometry" />
        </mxCell>
        <mxCell id="KY0VML5P8wNxNONXl5rY-160" value="" style="shape=partialRectangle;connectable=0;fillColor=none;top=0;left=0;bottom=0;right=0;editable=1;overflow=hidden;whiteSpace=wrap;html=1;fontFamily=Verdana;fontSize=11;shadow=1;labelBackgroundColor=none;strokeColor=#D0CEE2;fontColor=#1A1A1A;fontStyle=0" vertex="1" parent="KY0VML5P8wNxNONXl5rY-159">
          <mxGeometry width="30" height="30" as="geometry">
            <mxRectangle width="30" height="30" as="alternateBounds" />
          </mxGeometry>
        </mxCell>
        <mxCell id="KY0VML5P8wNxNONXl5rY-161" value="EFE_NOME VARCHAR(40) NOT NULL" style="shape=partialRectangle;connectable=0;fillColor=none;top=0;left=0;bottom=0;right=0;align=left;spacingLeft=6;overflow=hidden;whiteSpace=wrap;html=1;fontFamily=Verdana;fontSize=11;shadow=1;labelBackgroundColor=none;strokeColor=#D0CEE2;fontColor=#1A1A1A;fontStyle=0" vertex="1" parent="KY0VML5P8wNxNONXl5rY-159">
          <mxGeometry x="30" width="224" height="30" as="geometry">
            <mxRectangle width="224" height="30" as="alternateBounds" />
          </mxGeometry>
        </mxCell>
        <mxCell id="KY0VML5P8wNxNONXl5rY-162" value="" style="shape=tableRow;horizontal=0;startSize=0;swimlaneHead=0;swimlaneBody=0;fillColor=none;collapsible=0;dropTarget=0;points=[[0,0.5],[1,0.5]];portConstraint=eastwest;top=0;left=0;right=0;bottom=0;fontFamily=Verdana;fontSize=11;shadow=1;labelBackgroundColor=none;strokeColor=#D0CEE2;fontColor=#1A1A1A;fontStyle=0" vertex="1" parent="KY0VML5P8wNxNONXl5rY-155">
          <mxGeometry y="87" width="254" height="30" as="geometry" />
        </mxCell>
        <mxCell id="KY0VML5P8wNxNONXl5rY-163" value="" style="shape=partialRectangle;connectable=0;fillColor=none;top=0;left=0;bottom=0;right=0;editable=1;overflow=hidden;whiteSpace=wrap;html=1;fontFamily=Verdana;fontSize=11;shadow=1;labelBackgroundColor=none;strokeColor=#D0CEE2;fontColor=#1A1A1A;fontStyle=0" vertex="1" parent="KY0VML5P8wNxNONXl5rY-162">
          <mxGeometry width="30" height="30" as="geometry">
            <mxRectangle width="30" height="30" as="alternateBounds" />
          </mxGeometry>
        </mxCell>
        <mxCell id="KY0VML5P8wNxNONXl5rY-164" value="EFE_UF CHAR(2) NOT NULL" style="shape=partialRectangle;connectable=0;fillColor=none;top=0;left=0;bottom=0;right=0;align=left;spacingLeft=6;overflow=hidden;whiteSpace=wrap;html=1;fontFamily=Verdana;fontSize=11;shadow=1;labelBackgroundColor=none;strokeColor=#D0CEE2;fontColor=#1A1A1A;fontStyle=0" vertex="1" parent="KY0VML5P8wNxNONXl5rY-162">
          <mxGeometry x="30" width="224" height="30" as="geometry">
            <mxRectangle width="224" height="30" as="alternateBounds" />
          </mxGeometry>
        </mxCell>
        <mxCell id="KY0VML5P8wNxNONXl5rY-165" value="" style="shape=tableRow;horizontal=0;startSize=0;swimlaneHead=0;swimlaneBody=0;fillColor=none;collapsible=0;dropTarget=0;points=[[0,0.5],[1,0.5]];portConstraint=eastwest;top=0;left=0;right=0;bottom=0;fontFamily=Verdana;fontSize=11;shadow=1;labelBackgroundColor=none;strokeColor=#D0CEE2;fontColor=#1A1A1A;fontStyle=0" vertex="1" parent="KY0VML5P8wNxNONXl5rY-155">
          <mxGeometry y="117" width="254" height="30" as="geometry" />
        </mxCell>
        <mxCell id="KY0VML5P8wNxNONXl5rY-166" value="" style="shape=partialRectangle;connectable=0;fillColor=none;top=0;left=0;bottom=0;right=0;editable=1;overflow=hidden;whiteSpace=wrap;html=1;fontFamily=Verdana;fontSize=11;shadow=1;labelBackgroundColor=none;strokeColor=#D0CEE2;fontColor=#1A1A1A;fontStyle=0" vertex="1" parent="KY0VML5P8wNxNONXl5rY-165">
          <mxGeometry width="30" height="30" as="geometry">
            <mxRectangle width="30" height="30" as="alternateBounds" />
          </mxGeometry>
        </mxCell>
        <mxCell id="KY0VML5P8wNxNONXl5rY-167" value="EFE_PAIS VARCHAR(50) NOT NULL" style="shape=partialRectangle;connectable=0;fillColor=none;top=0;left=0;bottom=0;right=0;align=left;spacingLeft=6;overflow=hidden;whiteSpace=wrap;html=1;fontFamily=Verdana;fontSize=11;shadow=1;labelBackgroundColor=none;strokeColor=#D0CEE2;fontColor=#1A1A1A;fontStyle=0" vertex="1" parent="KY0VML5P8wNxNONXl5rY-165">
          <mxGeometry x="30" width="224" height="30" as="geometry">
            <mxRectangle width="224" height="30" as="alternateBounds" />
          </mxGeometry>
        </mxCell>
        <mxCell id="KY0VML5P8wNxNONXl5rY-168" value="TB_PRODUTOS" style="shape=table;startSize=30;container=1;collapsible=1;childLayout=tableLayout;fixedRows=1;rowLines=0;fontStyle=0;align=center;resizeLast=1;html=1;fontFamily=Verdana;fontSize=11;shadow=1;labelBackgroundColor=none;fillColor=#5D7F99;strokeColor=#D0CEE2;fontColor=#1A1A1A;" vertex="1" parent="1">
          <mxGeometry x="1470" y="1870" width="273" height="180" as="geometry" />
        </mxCell>
        <mxCell id="KY0VML5P8wNxNONXl5rY-169" value="" style="shape=tableRow;horizontal=0;startSize=0;swimlaneHead=0;swimlaneBody=0;fillColor=none;collapsible=0;dropTarget=0;points=[[0,0.5],[1,0.5]];portConstraint=eastwest;top=0;left=0;right=0;bottom=1;fontFamily=Verdana;fontSize=11;shadow=1;labelBackgroundColor=none;strokeColor=#D0CEE2;fontColor=#1A1A1A;fontStyle=0" vertex="1" parent="KY0VML5P8wNxNONXl5rY-168">
          <mxGeometry y="30" width="273" height="30" as="geometry" />
        </mxCell>
        <mxCell id="KY0VML5P8wNxNONXl5rY-170" value="PK" style="shape=partialRectangle;connectable=0;fillColor=none;top=0;left=0;bottom=0;right=0;fontStyle=0;overflow=hidden;whiteSpace=wrap;html=1;fontFamily=Verdana;fontSize=11;shadow=1;labelBackgroundColor=none;strokeColor=#D0CEE2;fontColor=#1A1A1A;" vertex="1" parent="KY0VML5P8wNxNONXl5rY-169">
          <mxGeometry width="30" height="30" as="geometry">
            <mxRectangle width="30" height="30" as="alternateBounds" />
          </mxGeometry>
        </mxCell>
        <mxCell id="KY0VML5P8wNxNONXl5rY-171" value="PRO_ID SERIAL" style="shape=partialRectangle;connectable=0;fillColor=none;top=0;left=0;bottom=0;right=0;align=left;spacingLeft=6;fontStyle=4;overflow=hidden;whiteSpace=wrap;html=1;fontFamily=Verdana;fontSize=11;shadow=1;labelBackgroundColor=none;strokeColor=#D0CEE2;fontColor=#1A1A1A;" vertex="1" parent="KY0VML5P8wNxNONXl5rY-169">
          <mxGeometry x="30" width="243" height="30" as="geometry">
            <mxRectangle width="243" height="30" as="alternateBounds" />
          </mxGeometry>
        </mxCell>
        <mxCell id="KY0VML5P8wNxNONXl5rY-172" value="" style="shape=tableRow;horizontal=0;startSize=0;swimlaneHead=0;swimlaneBody=0;fillColor=none;collapsible=0;dropTarget=0;points=[[0,0.5],[1,0.5]];portConstraint=eastwest;top=0;left=0;right=0;bottom=0;fontFamily=Verdana;fontSize=11;shadow=1;labelBackgroundColor=none;strokeColor=#D0CEE2;fontColor=#1A1A1A;fontStyle=0" vertex="1" parent="KY0VML5P8wNxNONXl5rY-168">
          <mxGeometry y="60" width="273" height="30" as="geometry" />
        </mxCell>
        <mxCell id="KY0VML5P8wNxNONXl5rY-173" value="" style="shape=partialRectangle;connectable=0;fillColor=none;top=0;left=0;bottom=0;right=0;editable=1;overflow=hidden;whiteSpace=wrap;html=1;fontFamily=Verdana;fontSize=11;shadow=1;labelBackgroundColor=none;strokeColor=#D0CEE2;fontColor=#1A1A1A;fontStyle=0" vertex="1" parent="KY0VML5P8wNxNONXl5rY-172">
          <mxGeometry width="30" height="30" as="geometry">
            <mxRectangle width="30" height="30" as="alternateBounds" />
          </mxGeometry>
        </mxCell>
        <mxCell id="KY0VML5P8wNxNONXl5rY-174" value="PRO_NOME VARCHAR(50) NOT NULL" style="shape=partialRectangle;connectable=0;fillColor=none;top=0;left=0;bottom=0;right=0;align=left;spacingLeft=6;overflow=hidden;whiteSpace=wrap;html=1;fontFamily=Verdana;fontSize=11;shadow=1;labelBackgroundColor=none;strokeColor=#D0CEE2;fontColor=#1A1A1A;fontStyle=0" vertex="1" parent="KY0VML5P8wNxNONXl5rY-172">
          <mxGeometry x="30" width="243" height="30" as="geometry">
            <mxRectangle width="243" height="30" as="alternateBounds" />
          </mxGeometry>
        </mxCell>
        <mxCell id="KY0VML5P8wNxNONXl5rY-175" value="" style="shape=tableRow;horizontal=0;startSize=0;swimlaneHead=0;swimlaneBody=0;fillColor=none;collapsible=0;dropTarget=0;points=[[0,0.5],[1,0.5]];portConstraint=eastwest;top=0;left=0;right=0;bottom=0;fontFamily=Verdana;fontSize=11;shadow=1;labelBackgroundColor=none;strokeColor=#D0CEE2;fontColor=#1A1A1A;fontStyle=0" vertex="1" parent="KY0VML5P8wNxNONXl5rY-168">
          <mxGeometry y="90" width="273" height="30" as="geometry" />
        </mxCell>
        <mxCell id="KY0VML5P8wNxNONXl5rY-176" value="" style="shape=partialRectangle;connectable=0;fillColor=none;top=0;left=0;bottom=0;right=0;editable=1;overflow=hidden;whiteSpace=wrap;html=1;fontFamily=Verdana;fontSize=11;shadow=1;labelBackgroundColor=none;strokeColor=#D0CEE2;fontColor=#1A1A1A;fontStyle=0" vertex="1" parent="KY0VML5P8wNxNONXl5rY-175">
          <mxGeometry width="30" height="30" as="geometry">
            <mxRectangle width="30" height="30" as="alternateBounds" />
          </mxGeometry>
        </mxCell>
        <mxCell id="KY0VML5P8wNxNONXl5rY-177" value="PRO_DESC VARCHAR(255) NOT NULL" style="shape=partialRectangle;connectable=0;fillColor=none;top=0;left=0;bottom=0;right=0;align=left;spacingLeft=6;overflow=hidden;whiteSpace=wrap;html=1;fontFamily=Verdana;fontSize=11;shadow=1;labelBackgroundColor=none;strokeColor=#D0CEE2;fontColor=#1A1A1A;fontStyle=0" vertex="1" parent="KY0VML5P8wNxNONXl5rY-175">
          <mxGeometry x="30" width="243" height="30" as="geometry">
            <mxRectangle width="243" height="30" as="alternateBounds" />
          </mxGeometry>
        </mxCell>
        <mxCell id="KY0VML5P8wNxNONXl5rY-178" value="" style="shape=tableRow;horizontal=0;startSize=0;swimlaneHead=0;swimlaneBody=0;fillColor=none;collapsible=0;dropTarget=0;points=[[0,0.5],[1,0.5]];portConstraint=eastwest;top=0;left=0;right=0;bottom=0;fontFamily=Verdana;fontSize=11;shadow=1;labelBackgroundColor=none;strokeColor=#D0CEE2;fontColor=#1A1A1A;fontStyle=0" vertex="1" parent="KY0VML5P8wNxNONXl5rY-168">
          <mxGeometry y="120" width="273" height="30" as="geometry" />
        </mxCell>
        <mxCell id="KY0VML5P8wNxNONXl5rY-179" value="" style="shape=partialRectangle;connectable=0;fillColor=none;top=0;left=0;bottom=0;right=0;editable=1;overflow=hidden;whiteSpace=wrap;html=1;fontFamily=Verdana;fontSize=11;shadow=1;labelBackgroundColor=none;strokeColor=#D0CEE2;fontColor=#1A1A1A;fontStyle=0" vertex="1" parent="KY0VML5P8wNxNONXl5rY-178">
          <mxGeometry width="30" height="30" as="geometry">
            <mxRectangle width="30" height="30" as="alternateBounds" />
          </mxGeometry>
        </mxCell>
        <mxCell id="KY0VML5P8wNxNONXl5rY-180" value="PRO_PRECO DECIMAL(10,2) NOT NULL" style="shape=partialRectangle;connectable=0;fillColor=none;top=0;left=0;bottom=0;right=0;align=left;spacingLeft=6;overflow=hidden;whiteSpace=wrap;html=1;fontFamily=Verdana;fontSize=11;shadow=1;labelBackgroundColor=none;strokeColor=#D0CEE2;fontColor=#1A1A1A;fontStyle=0" vertex="1" parent="KY0VML5P8wNxNONXl5rY-178">
          <mxGeometry x="30" width="243" height="30" as="geometry">
            <mxRectangle width="243" height="30" as="alternateBounds" />
          </mxGeometry>
        </mxCell>
        <mxCell id="KY0VML5P8wNxNONXl5rY-181" value="" style="shape=tableRow;horizontal=0;startSize=0;swimlaneHead=0;swimlaneBody=0;fillColor=none;collapsible=0;dropTarget=0;points=[[0,0.5],[1,0.5]];portConstraint=eastwest;top=0;left=0;right=0;bottom=0;fontFamily=Verdana;fontSize=11;shadow=1;labelBackgroundColor=none;strokeColor=#D0CEE2;fontColor=#1A1A1A;fontStyle=0" vertex="1" parent="KY0VML5P8wNxNONXl5rY-168">
          <mxGeometry y="150" width="273" height="30" as="geometry" />
        </mxCell>
        <mxCell id="KY0VML5P8wNxNONXl5rY-182" value="" style="shape=partialRectangle;connectable=0;fillColor=none;top=0;left=0;bottom=0;right=0;editable=1;overflow=hidden;whiteSpace=wrap;html=1;fontFamily=Verdana;fontSize=11;shadow=1;labelBackgroundColor=none;strokeColor=#D0CEE2;fontColor=#1A1A1A;fontStyle=0" vertex="1" parent="KY0VML5P8wNxNONXl5rY-181">
          <mxGeometry width="30" height="30" as="geometry">
            <mxRectangle width="30" height="30" as="alternateBounds" />
          </mxGeometry>
        </mxCell>
        <mxCell id="KY0VML5P8wNxNONXl5rY-183" value="PRO_QTDDISP INT" style="shape=partialRectangle;connectable=0;fillColor=none;top=0;left=0;bottom=0;right=0;align=left;spacingLeft=6;overflow=hidden;whiteSpace=wrap;html=1;fontFamily=Verdana;fontSize=11;shadow=1;labelBackgroundColor=none;strokeColor=#D0CEE2;fontColor=#1A1A1A;fontStyle=0" vertex="1" parent="KY0VML5P8wNxNONXl5rY-181">
          <mxGeometry x="30" width="243" height="30" as="geometry">
            <mxRectangle width="243" height="30" as="alternateBounds" />
          </mxGeometry>
        </mxCell>
        <mxCell id="KY0VML5P8wNxNONXl5rY-184" value="TB_LOCACOES" style="shape=table;startSize=30;container=1;collapsible=1;childLayout=tableLayout;fixedRows=1;rowLines=0;fontStyle=0;align=center;resizeLast=1;html=1;fontFamily=Verdana;fontSize=11;shadow=1;labelBackgroundColor=none;fillColor=#5D7F99;strokeColor=#D0CEE2;fontColor=#1A1A1A;" vertex="1" parent="1">
          <mxGeometry x="669" y="1730" width="315" height="273" as="geometry" />
        </mxCell>
        <mxCell id="KY0VML5P8wNxNONXl5rY-185" value="" style="shape=tableRow;horizontal=0;startSize=0;swimlaneHead=0;swimlaneBody=0;fillColor=none;collapsible=0;dropTarget=0;points=[[0,0.5],[1,0.5]];portConstraint=eastwest;top=0;left=0;right=0;bottom=1;fontFamily=Verdana;fontSize=11;shadow=1;labelBackgroundColor=none;strokeColor=#D0CEE2;fontColor=#1A1A1A;fontStyle=0" vertex="1" parent="KY0VML5P8wNxNONXl5rY-184">
          <mxGeometry y="30" width="315" height="30" as="geometry" />
        </mxCell>
        <mxCell id="KY0VML5P8wNxNONXl5rY-186" value="PK" style="shape=partialRectangle;connectable=0;fillColor=none;top=0;left=0;bottom=0;right=0;fontStyle=0;overflow=hidden;whiteSpace=wrap;html=1;fontFamily=Verdana;fontSize=11;shadow=1;labelBackgroundColor=none;strokeColor=#D0CEE2;fontColor=#1A1A1A;" vertex="1" parent="KY0VML5P8wNxNONXl5rY-185">
          <mxGeometry width="30" height="30" as="geometry">
            <mxRectangle width="30" height="30" as="alternateBounds" />
          </mxGeometry>
        </mxCell>
        <mxCell id="KY0VML5P8wNxNONXl5rY-187" value="LOC_ID SERIAL" style="shape=partialRectangle;connectable=0;fillColor=none;top=0;left=0;bottom=0;right=0;align=left;spacingLeft=6;fontStyle=4;overflow=hidden;whiteSpace=wrap;html=1;fontFamily=Verdana;fontSize=11;shadow=1;labelBackgroundColor=none;strokeColor=#D0CEE2;fontColor=#1A1A1A;" vertex="1" parent="KY0VML5P8wNxNONXl5rY-185">
          <mxGeometry x="30" width="285" height="30" as="geometry">
            <mxRectangle width="285" height="30" as="alternateBounds" />
          </mxGeometry>
        </mxCell>
        <mxCell id="KY0VML5P8wNxNONXl5rY-188" value="" style="shape=tableRow;horizontal=0;startSize=0;swimlaneHead=0;swimlaneBody=0;fillColor=none;collapsible=0;dropTarget=0;points=[[0,0.5],[1,0.5]];portConstraint=eastwest;top=0;left=0;right=0;bottom=0;fontFamily=Verdana;fontSize=11;shadow=1;labelBackgroundColor=none;strokeColor=#D0CEE2;fontColor=#1A1A1A;fontStyle=0" vertex="1" parent="KY0VML5P8wNxNONXl5rY-184">
          <mxGeometry y="60" width="315" height="30" as="geometry" />
        </mxCell>
        <mxCell id="KY0VML5P8wNxNONXl5rY-189" value="FK" style="shape=partialRectangle;connectable=0;fillColor=none;top=0;left=0;bottom=0;right=0;editable=1;overflow=hidden;whiteSpace=wrap;html=1;fontFamily=Verdana;fontSize=11;shadow=1;labelBackgroundColor=none;strokeColor=#D0CEE2;fontColor=#1A1A1A;fontStyle=0" vertex="1" parent="KY0VML5P8wNxNONXl5rY-188">
          <mxGeometry width="30" height="30" as="geometry">
            <mxRectangle width="30" height="30" as="alternateBounds" />
          </mxGeometry>
        </mxCell>
        <mxCell id="KY0VML5P8wNxNONXl5rY-190" value="LOC_PESID INT NOT NULL" style="shape=partialRectangle;connectable=0;fillColor=none;top=0;left=0;bottom=0;right=0;align=left;spacingLeft=6;overflow=hidden;whiteSpace=wrap;html=1;fontFamily=Verdana;fontSize=11;shadow=1;labelBackgroundColor=none;strokeColor=#D0CEE2;fontColor=#1A1A1A;fontStyle=0" vertex="1" parent="KY0VML5P8wNxNONXl5rY-188">
          <mxGeometry x="30" width="285" height="30" as="geometry">
            <mxRectangle width="285" height="30" as="alternateBounds" />
          </mxGeometry>
        </mxCell>
        <mxCell id="KY0VML5P8wNxNONXl5rY-191" value="" style="shape=tableRow;horizontal=0;startSize=0;swimlaneHead=0;swimlaneBody=0;fillColor=none;collapsible=0;dropTarget=0;points=[[0,0.5],[1,0.5]];portConstraint=eastwest;top=0;left=0;right=0;bottom=0;fontFamily=Verdana;fontSize=11;shadow=1;labelBackgroundColor=none;strokeColor=#D0CEE2;fontColor=#1A1A1A;fontStyle=0" vertex="1" parent="KY0VML5P8wNxNONXl5rY-184">
          <mxGeometry y="90" width="315" height="30" as="geometry" />
        </mxCell>
        <mxCell id="KY0VML5P8wNxNONXl5rY-192" value="FK" style="shape=partialRectangle;connectable=0;fillColor=none;top=0;left=0;bottom=0;right=0;editable=1;overflow=hidden;whiteSpace=wrap;html=1;fontFamily=Verdana;fontSize=11;shadow=1;labelBackgroundColor=none;strokeColor=#D0CEE2;fontColor=#1A1A1A;fontStyle=0" vertex="1" parent="KY0VML5P8wNxNONXl5rY-191">
          <mxGeometry width="30" height="30" as="geometry">
            <mxRectangle width="30" height="30" as="alternateBounds" />
          </mxGeometry>
        </mxCell>
        <mxCell id="KY0VML5P8wNxNONXl5rY-193" value="LOC_VEIID INT NOT NULL" style="shape=partialRectangle;connectable=0;fillColor=none;top=0;left=0;bottom=0;right=0;align=left;spacingLeft=6;overflow=hidden;whiteSpace=wrap;html=1;fontFamily=Verdana;fontSize=11;shadow=1;labelBackgroundColor=none;strokeColor=#D0CEE2;fontColor=#1A1A1A;fontStyle=0" vertex="1" parent="KY0VML5P8wNxNONXl5rY-191">
          <mxGeometry x="30" width="285" height="30" as="geometry">
            <mxRectangle width="285" height="30" as="alternateBounds" />
          </mxGeometry>
        </mxCell>
        <mxCell id="KY0VML5P8wNxNONXl5rY-194" value="" style="shape=tableRow;horizontal=0;startSize=0;swimlaneHead=0;swimlaneBody=0;fillColor=none;collapsible=0;dropTarget=0;points=[[0,0.5],[1,0.5]];portConstraint=eastwest;top=0;left=0;right=0;bottom=0;fontFamily=Verdana;fontSize=11;shadow=1;labelBackgroundColor=none;strokeColor=#D0CEE2;fontColor=#1A1A1A;fontStyle=0" vertex="1" parent="KY0VML5P8wNxNONXl5rY-184">
          <mxGeometry y="120" width="315" height="30" as="geometry" />
        </mxCell>
        <mxCell id="KY0VML5P8wNxNONXl5rY-195" value="" style="shape=partialRectangle;connectable=0;fillColor=none;top=0;left=0;bottom=0;right=0;editable=1;overflow=hidden;whiteSpace=wrap;html=1;fontFamily=Verdana;fontSize=11;shadow=1;labelBackgroundColor=none;strokeColor=#D0CEE2;fontColor=#1A1A1A;fontStyle=0" vertex="1" parent="KY0VML5P8wNxNONXl5rY-194">
          <mxGeometry width="30" height="30" as="geometry">
            <mxRectangle width="30" height="30" as="alternateBounds" />
          </mxGeometry>
        </mxCell>
        <mxCell id="KY0VML5P8wNxNONXl5rY-196" value="LOC_DATINI DATE NOT NULL" style="shape=partialRectangle;connectable=0;fillColor=none;top=0;left=0;bottom=0;right=0;align=left;spacingLeft=6;overflow=hidden;whiteSpace=wrap;html=1;fontFamily=Verdana;fontSize=11;shadow=1;labelBackgroundColor=none;strokeColor=#D0CEE2;fontColor=#1A1A1A;fontStyle=0" vertex="1" parent="KY0VML5P8wNxNONXl5rY-194">
          <mxGeometry x="30" width="285" height="30" as="geometry">
            <mxRectangle width="285" height="30" as="alternateBounds" />
          </mxGeometry>
        </mxCell>
        <mxCell id="KY0VML5P8wNxNONXl5rY-197" value="" style="shape=tableRow;horizontal=0;startSize=0;swimlaneHead=0;swimlaneBody=0;fillColor=none;collapsible=0;dropTarget=0;points=[[0,0.5],[1,0.5]];portConstraint=eastwest;top=0;left=0;right=0;bottom=0;fontFamily=Verdana;fontSize=11;shadow=1;labelBackgroundColor=none;strokeColor=#D0CEE2;fontColor=#1A1A1A;fontStyle=0" vertex="1" parent="KY0VML5P8wNxNONXl5rY-184">
          <mxGeometry y="150" width="315" height="30" as="geometry" />
        </mxCell>
        <mxCell id="KY0VML5P8wNxNONXl5rY-198" value="" style="shape=partialRectangle;connectable=0;fillColor=none;top=0;left=0;bottom=0;right=0;editable=1;overflow=hidden;whiteSpace=wrap;html=1;fontFamily=Verdana;fontSize=11;shadow=1;labelBackgroundColor=none;strokeColor=#D0CEE2;fontColor=#1A1A1A;fontStyle=0" vertex="1" parent="KY0VML5P8wNxNONXl5rY-197">
          <mxGeometry width="30" height="30" as="geometry">
            <mxRectangle width="30" height="30" as="alternateBounds" />
          </mxGeometry>
        </mxCell>
        <mxCell id="KY0VML5P8wNxNONXl5rY-199" value="LOC_DATFIM DATE" style="shape=partialRectangle;connectable=0;fillColor=none;top=0;left=0;bottom=0;right=0;align=left;spacingLeft=6;overflow=hidden;whiteSpace=wrap;html=1;fontFamily=Verdana;fontSize=11;shadow=1;labelBackgroundColor=none;strokeColor=#D0CEE2;fontColor=#1A1A1A;fontStyle=0" vertex="1" parent="KY0VML5P8wNxNONXl5rY-197">
          <mxGeometry x="30" width="285" height="30" as="geometry">
            <mxRectangle width="285" height="30" as="alternateBounds" />
          </mxGeometry>
        </mxCell>
        <mxCell id="KY0VML5P8wNxNONXl5rY-200" value="" style="shape=tableRow;horizontal=0;startSize=0;swimlaneHead=0;swimlaneBody=0;fillColor=none;collapsible=0;dropTarget=0;points=[[0,0.5],[1,0.5]];portConstraint=eastwest;top=0;left=0;right=0;bottom=0;fontFamily=Verdana;fontSize=11;shadow=1;labelBackgroundColor=none;strokeColor=#D0CEE2;fontColor=#1A1A1A;fontStyle=0" vertex="1" parent="KY0VML5P8wNxNONXl5rY-184">
          <mxGeometry y="180" width="315" height="30" as="geometry" />
        </mxCell>
        <mxCell id="KY0VML5P8wNxNONXl5rY-201" value="" style="shape=partialRectangle;connectable=0;fillColor=none;top=0;left=0;bottom=0;right=0;editable=1;overflow=hidden;whiteSpace=wrap;html=1;fontFamily=Verdana;fontSize=11;shadow=1;labelBackgroundColor=none;strokeColor=#D0CEE2;fontColor=#1A1A1A;fontStyle=0" vertex="1" parent="KY0VML5P8wNxNONXl5rY-200">
          <mxGeometry width="30" height="30" as="geometry">
            <mxRectangle width="30" height="30" as="alternateBounds" />
          </mxGeometry>
        </mxCell>
        <mxCell id="KY0VML5P8wNxNONXl5rY-202" value="LOC_DIASLOCADOS INT NOT NULL" style="shape=partialRectangle;connectable=0;fillColor=none;top=0;left=0;bottom=0;right=0;align=left;spacingLeft=6;overflow=hidden;whiteSpace=wrap;html=1;fontFamily=Verdana;fontSize=11;shadow=1;labelBackgroundColor=none;strokeColor=#D0CEE2;fontColor=#1A1A1A;fontStyle=0" vertex="1" parent="KY0VML5P8wNxNONXl5rY-200">
          <mxGeometry x="30" width="285" height="30" as="geometry">
            <mxRectangle width="285" height="30" as="alternateBounds" />
          </mxGeometry>
        </mxCell>
        <mxCell id="KY0VML5P8wNxNONXl5rY-204" value="" style="shape=tableRow;horizontal=0;startSize=0;swimlaneHead=0;swimlaneBody=0;fillColor=none;collapsible=0;dropTarget=0;points=[[0,0.5],[1,0.5]];portConstraint=eastwest;top=0;left=0;right=0;bottom=0;fontFamily=Verdana;fontSize=11;shadow=1;labelBackgroundColor=none;strokeColor=#D0CEE2;fontColor=#1A1A1A;fontStyle=0" vertex="1" parent="KY0VML5P8wNxNONXl5rY-184">
          <mxGeometry y="210" width="315" height="30" as="geometry" />
        </mxCell>
        <mxCell id="KY0VML5P8wNxNONXl5rY-205" value="" style="shape=partialRectangle;connectable=0;fillColor=none;top=0;left=0;bottom=0;right=0;editable=1;overflow=hidden;whiteSpace=wrap;html=1;fontFamily=Verdana;fontSize=11;shadow=1;labelBackgroundColor=none;strokeColor=#D0CEE2;fontColor=#1A1A1A;fontStyle=0" vertex="1" parent="KY0VML5P8wNxNONXl5rY-204">
          <mxGeometry width="30" height="30" as="geometry">
            <mxRectangle width="30" height="30" as="alternateBounds" />
          </mxGeometry>
        </mxCell>
        <mxCell id="KY0VML5P8wNxNONXl5rY-206" value="LOC_TOTALBRUTO DECIMAL(10,2) NOT NULL" style="shape=partialRectangle;connectable=0;fillColor=none;top=0;left=0;bottom=0;right=0;align=left;spacingLeft=6;overflow=hidden;whiteSpace=wrap;html=1;fontFamily=Verdana;fontSize=11;shadow=1;labelBackgroundColor=none;strokeColor=#D0CEE2;fontColor=#1A1A1A;fontStyle=0" vertex="1" parent="KY0VML5P8wNxNONXl5rY-204">
          <mxGeometry x="30" width="285" height="30" as="geometry">
            <mxRectangle width="285" height="30" as="alternateBounds" />
          </mxGeometry>
        </mxCell>
        <mxCell id="KY0VML5P8wNxNONXl5rY-207" value="" style="shape=tableRow;horizontal=0;startSize=0;swimlaneHead=0;swimlaneBody=0;fillColor=none;collapsible=0;dropTarget=0;points=[[0,0.5],[1,0.5]];portConstraint=eastwest;top=0;left=0;right=0;bottom=0;fontFamily=Verdana;fontSize=11;shadow=1;labelBackgroundColor=none;strokeColor=#D0CEE2;fontColor=#1A1A1A;fontStyle=0" vertex="1" parent="KY0VML5P8wNxNONXl5rY-184">
          <mxGeometry y="240" width="315" height="30" as="geometry" />
        </mxCell>
        <mxCell id="KY0VML5P8wNxNONXl5rY-208" value="" style="shape=partialRectangle;connectable=0;fillColor=none;top=0;left=0;bottom=0;right=0;editable=1;overflow=hidden;whiteSpace=wrap;html=1;fontFamily=Verdana;fontSize=11;shadow=1;labelBackgroundColor=none;strokeColor=#D0CEE2;fontColor=#1A1A1A;fontStyle=0" vertex="1" parent="KY0VML5P8wNxNONXl5rY-207">
          <mxGeometry width="30" height="30" as="geometry">
            <mxRectangle width="30" height="30" as="alternateBounds" />
          </mxGeometry>
        </mxCell>
        <mxCell id="KY0VML5P8wNxNONXl5rY-209" value="LOC_TOTALLIQUIDO DECIMAL(10,2) NOT NULL" style="shape=partialRectangle;connectable=0;fillColor=none;top=0;left=0;bottom=0;right=0;align=left;spacingLeft=6;overflow=hidden;whiteSpace=wrap;html=1;fontFamily=Verdana;fontSize=11;shadow=1;labelBackgroundColor=none;strokeColor=#D0CEE2;fontColor=#1A1A1A;fontStyle=0" vertex="1" parent="KY0VML5P8wNxNONXl5rY-207">
          <mxGeometry x="30" width="285" height="30" as="geometry">
            <mxRectangle width="285" height="30" as="alternateBounds" />
          </mxGeometry>
        </mxCell>
        <mxCell id="KY0VML5P8wNxNONXl5rY-210" value="&lt;div style=&quot;font-size: 11px;&quot;&gt;TB_PRODUTOS_LOCADOS&lt;/div&gt;" style="shape=table;startSize=30;container=1;collapsible=1;childLayout=tableLayout;fixedRows=1;rowLines=0;fontStyle=0;align=center;resizeLast=1;html=1;fontFamily=Verdana;fontSize=11;shadow=1;labelBackgroundColor=none;fillColor=#5D7F99;strokeColor=#D0CEE2;fontColor=#1A1A1A;" vertex="1" parent="1">
          <mxGeometry x="1140" y="2116" width="207" height="120" as="geometry" />
        </mxCell>
        <mxCell id="KY0VML5P8wNxNONXl5rY-211" value="" style="shape=tableRow;horizontal=0;startSize=0;swimlaneHead=0;swimlaneBody=0;fillColor=none;collapsible=0;dropTarget=0;points=[[0,0.5],[1,0.5]];portConstraint=eastwest;top=0;left=0;right=0;bottom=1;fontFamily=Verdana;fontSize=11;shadow=1;labelBackgroundColor=none;strokeColor=#D0CEE2;fontColor=#1A1A1A;fontStyle=0" vertex="1" parent="KY0VML5P8wNxNONXl5rY-210">
          <mxGeometry y="30" width="207" height="30" as="geometry" />
        </mxCell>
        <mxCell id="KY0VML5P8wNxNONXl5rY-212" value="PK" style="shape=partialRectangle;connectable=0;fillColor=none;top=0;left=0;bottom=0;right=0;fontStyle=0;overflow=hidden;whiteSpace=wrap;html=1;fontFamily=Verdana;fontSize=11;shadow=1;labelBackgroundColor=none;strokeColor=#D0CEE2;fontColor=#1A1A1A;" vertex="1" parent="KY0VML5P8wNxNONXl5rY-211">
          <mxGeometry width="30" height="30" as="geometry">
            <mxRectangle width="30" height="30" as="alternateBounds" />
          </mxGeometry>
        </mxCell>
        <mxCell id="KY0VML5P8wNxNONXl5rY-213" value="PLO_ID SERIAL" style="shape=partialRectangle;connectable=0;fillColor=none;top=0;left=0;bottom=0;right=0;align=left;spacingLeft=6;fontStyle=4;overflow=hidden;whiteSpace=wrap;html=1;fontFamily=Verdana;fontSize=11;shadow=1;labelBackgroundColor=none;strokeColor=#D0CEE2;fontColor=#1A1A1A;" vertex="1" parent="KY0VML5P8wNxNONXl5rY-211">
          <mxGeometry x="30" width="177" height="30" as="geometry">
            <mxRectangle width="177" height="30" as="alternateBounds" />
          </mxGeometry>
        </mxCell>
        <mxCell id="KY0VML5P8wNxNONXl5rY-214" value="" style="shape=tableRow;horizontal=0;startSize=0;swimlaneHead=0;swimlaneBody=0;fillColor=none;collapsible=0;dropTarget=0;points=[[0,0.5],[1,0.5]];portConstraint=eastwest;top=0;left=0;right=0;bottom=0;fontFamily=Verdana;fontSize=11;shadow=1;labelBackgroundColor=none;strokeColor=#D0CEE2;fontColor=#1A1A1A;fontStyle=0" vertex="1" parent="KY0VML5P8wNxNONXl5rY-210">
          <mxGeometry y="60" width="207" height="30" as="geometry" />
        </mxCell>
        <mxCell id="KY0VML5P8wNxNONXl5rY-215" value="FK" style="shape=partialRectangle;connectable=0;fillColor=none;top=0;left=0;bottom=0;right=0;editable=1;overflow=hidden;whiteSpace=wrap;html=1;fontFamily=Verdana;fontSize=11;shadow=1;labelBackgroundColor=none;strokeColor=#D0CEE2;fontColor=#1A1A1A;fontStyle=0" vertex="1" parent="KY0VML5P8wNxNONXl5rY-214">
          <mxGeometry width="30" height="30" as="geometry">
            <mxRectangle width="30" height="30" as="alternateBounds" />
          </mxGeometry>
        </mxCell>
        <mxCell id="KY0VML5P8wNxNONXl5rY-216" value="PLO_PROID INT&amp;nbsp;NOT NULL" style="shape=partialRectangle;connectable=0;fillColor=none;top=0;left=0;bottom=0;right=0;align=left;spacingLeft=6;overflow=hidden;whiteSpace=wrap;html=1;fontFamily=Verdana;fontSize=11;shadow=1;labelBackgroundColor=none;strokeColor=#D0CEE2;fontColor=#1A1A1A;fontStyle=0" vertex="1" parent="KY0VML5P8wNxNONXl5rY-214">
          <mxGeometry x="30" width="177" height="30" as="geometry">
            <mxRectangle width="177" height="30" as="alternateBounds" />
          </mxGeometry>
        </mxCell>
        <mxCell id="KY0VML5P8wNxNONXl5rY-217" value="" style="shape=tableRow;horizontal=0;startSize=0;swimlaneHead=0;swimlaneBody=0;fillColor=none;collapsible=0;dropTarget=0;points=[[0,0.5],[1,0.5]];portConstraint=eastwest;top=0;left=0;right=0;bottom=0;fontFamily=Verdana;fontSize=11;shadow=1;labelBackgroundColor=none;strokeColor=#D0CEE2;fontColor=#1A1A1A;fontStyle=0" vertex="1" parent="KY0VML5P8wNxNONXl5rY-210">
          <mxGeometry y="90" width="207" height="30" as="geometry" />
        </mxCell>
        <mxCell id="KY0VML5P8wNxNONXl5rY-218" value="FK" style="shape=partialRectangle;connectable=0;fillColor=none;top=0;left=0;bottom=0;right=0;editable=1;overflow=hidden;whiteSpace=wrap;html=1;fontFamily=Verdana;fontSize=11;shadow=1;labelBackgroundColor=none;strokeColor=#D0CEE2;fontColor=#1A1A1A;fontStyle=0" vertex="1" parent="KY0VML5P8wNxNONXl5rY-217">
          <mxGeometry width="30" height="30" as="geometry">
            <mxRectangle width="30" height="30" as="alternateBounds" />
          </mxGeometry>
        </mxCell>
        <mxCell id="KY0VML5P8wNxNONXl5rY-219" value="PLO_LOCID INT NOT NULL" style="shape=partialRectangle;connectable=0;fillColor=none;top=0;left=0;bottom=0;right=0;align=left;spacingLeft=6;overflow=hidden;whiteSpace=wrap;html=1;fontFamily=Verdana;fontSize=11;shadow=1;labelBackgroundColor=none;strokeColor=#D0CEE2;fontColor=#1A1A1A;fontStyle=0" vertex="1" parent="KY0VML5P8wNxNONXl5rY-217">
          <mxGeometry x="30" width="177" height="30" as="geometry">
            <mxRectangle width="177" height="30" as="alternateBounds" />
          </mxGeometry>
        </mxCell>
        <mxCell id="KY0VML5P8wNxNONXl5rY-223" value="TB_DESCONTOS_ACRESCIMOS" style="shape=table;startSize=30;container=1;collapsible=1;childLayout=tableLayout;fixedRows=1;rowLines=0;fontStyle=0;align=center;resizeLast=1;html=1;fontFamily=Verdana;fontSize=11;shadow=1;labelBackgroundColor=none;fillColor=#5D7F99;strokeColor=#D0CEE2;fontColor=#1A1A1A;" vertex="1" parent="1">
          <mxGeometry x="245" y="2180" width="315" height="150" as="geometry" />
        </mxCell>
        <mxCell id="KY0VML5P8wNxNONXl5rY-224" value="" style="shape=tableRow;horizontal=0;startSize=0;swimlaneHead=0;swimlaneBody=0;fillColor=none;collapsible=0;dropTarget=0;points=[[0,0.5],[1,0.5]];portConstraint=eastwest;top=0;left=0;right=0;bottom=1;fontFamily=Verdana;fontSize=11;shadow=1;labelBackgroundColor=none;strokeColor=#D0CEE2;fontColor=#1A1A1A;fontStyle=0" vertex="1" parent="KY0VML5P8wNxNONXl5rY-223">
          <mxGeometry y="30" width="315" height="30" as="geometry" />
        </mxCell>
        <mxCell id="KY0VML5P8wNxNONXl5rY-225" value="PK" style="shape=partialRectangle;connectable=0;fillColor=none;top=0;left=0;bottom=0;right=0;fontStyle=0;overflow=hidden;whiteSpace=wrap;html=1;fontFamily=Verdana;fontSize=11;shadow=1;labelBackgroundColor=none;strokeColor=#D0CEE2;fontColor=#1A1A1A;" vertex="1" parent="KY0VML5P8wNxNONXl5rY-224">
          <mxGeometry width="30" height="30" as="geometry">
            <mxRectangle width="30" height="30" as="alternateBounds" />
          </mxGeometry>
        </mxCell>
        <mxCell id="KY0VML5P8wNxNONXl5rY-226" value="DAC_ID SERIAL" style="shape=partialRectangle;connectable=0;fillColor=none;top=0;left=0;bottom=0;right=0;align=left;spacingLeft=6;fontStyle=4;overflow=hidden;whiteSpace=wrap;html=1;fontFamily=Verdana;fontSize=11;shadow=1;labelBackgroundColor=none;strokeColor=#D0CEE2;fontColor=#1A1A1A;" vertex="1" parent="KY0VML5P8wNxNONXl5rY-224">
          <mxGeometry x="30" width="285" height="30" as="geometry">
            <mxRectangle width="285" height="30" as="alternateBounds" />
          </mxGeometry>
        </mxCell>
        <mxCell id="KY0VML5P8wNxNONXl5rY-227" value="" style="shape=tableRow;horizontal=0;startSize=0;swimlaneHead=0;swimlaneBody=0;fillColor=none;collapsible=0;dropTarget=0;points=[[0,0.5],[1,0.5]];portConstraint=eastwest;top=0;left=0;right=0;bottom=0;fontFamily=Verdana;fontSize=11;shadow=1;labelBackgroundColor=none;strokeColor=#D0CEE2;fontColor=#1A1A1A;fontStyle=0" vertex="1" parent="KY0VML5P8wNxNONXl5rY-223">
          <mxGeometry y="60" width="315" height="30" as="geometry" />
        </mxCell>
        <mxCell id="KY0VML5P8wNxNONXl5rY-228" value="" style="shape=partialRectangle;connectable=0;fillColor=none;top=0;left=0;bottom=0;right=0;editable=1;overflow=hidden;whiteSpace=wrap;html=1;fontFamily=Verdana;fontSize=11;shadow=1;labelBackgroundColor=none;strokeColor=#D0CEE2;fontColor=#1A1A1A;fontStyle=0" vertex="1" parent="KY0VML5P8wNxNONXl5rY-227">
          <mxGeometry width="30" height="30" as="geometry">
            <mxRectangle width="30" height="30" as="alternateBounds" />
          </mxGeometry>
        </mxCell>
        <mxCell id="KY0VML5P8wNxNONXl5rY-229" value="DAC_CODDESACR VARCHAR(6) NOT NULL" style="shape=partialRectangle;connectable=0;fillColor=none;top=0;left=0;bottom=0;right=0;align=left;spacingLeft=6;overflow=hidden;whiteSpace=wrap;html=1;fontFamily=Verdana;fontSize=11;shadow=1;labelBackgroundColor=none;strokeColor=#D0CEE2;fontColor=#1A1A1A;fontStyle=0" vertex="1" parent="KY0VML5P8wNxNONXl5rY-227">
          <mxGeometry x="30" width="285" height="30" as="geometry">
            <mxRectangle width="285" height="30" as="alternateBounds" />
          </mxGeometry>
        </mxCell>
        <mxCell id="KY0VML5P8wNxNONXl5rY-230" value="" style="shape=tableRow;horizontal=0;startSize=0;swimlaneHead=0;swimlaneBody=0;fillColor=none;collapsible=0;dropTarget=0;points=[[0,0.5],[1,0.5]];portConstraint=eastwest;top=0;left=0;right=0;bottom=0;fontFamily=Verdana;fontSize=11;shadow=1;labelBackgroundColor=none;strokeColor=#D0CEE2;fontColor=#1A1A1A;fontStyle=0" vertex="1" parent="KY0VML5P8wNxNONXl5rY-223">
          <mxGeometry y="90" width="315" height="30" as="geometry" />
        </mxCell>
        <mxCell id="KY0VML5P8wNxNONXl5rY-231" value="" style="shape=partialRectangle;connectable=0;fillColor=none;top=0;left=0;bottom=0;right=0;editable=1;overflow=hidden;whiteSpace=wrap;html=1;fontFamily=Verdana;fontSize=11;shadow=1;labelBackgroundColor=none;strokeColor=#D0CEE2;fontColor=#1A1A1A;fontStyle=0" vertex="1" parent="KY0VML5P8wNxNONXl5rY-230">
          <mxGeometry width="30" height="30" as="geometry">
            <mxRectangle width="30" height="30" as="alternateBounds" />
          </mxGeometry>
        </mxCell>
        <mxCell id="KY0VML5P8wNxNONXl5rY-232" value="DAC_DESCRICAO VARCHAR(100) NOT NULL" style="shape=partialRectangle;connectable=0;fillColor=none;top=0;left=0;bottom=0;right=0;align=left;spacingLeft=6;overflow=hidden;whiteSpace=wrap;html=1;fontFamily=Verdana;fontSize=11;shadow=1;labelBackgroundColor=none;strokeColor=#D0CEE2;fontColor=#1A1A1A;fontStyle=0" vertex="1" parent="KY0VML5P8wNxNONXl5rY-230">
          <mxGeometry x="30" width="285" height="30" as="geometry">
            <mxRectangle width="285" height="30" as="alternateBounds" />
          </mxGeometry>
        </mxCell>
        <mxCell id="KY0VML5P8wNxNONXl5rY-233" value="" style="shape=tableRow;horizontal=0;startSize=0;swimlaneHead=0;swimlaneBody=0;fillColor=none;collapsible=0;dropTarget=0;points=[[0,0.5],[1,0.5]];portConstraint=eastwest;top=0;left=0;right=0;bottom=0;fontFamily=Verdana;fontSize=11;shadow=1;labelBackgroundColor=none;strokeColor=#D0CEE2;fontColor=#1A1A1A;fontStyle=0" vertex="1" parent="KY0VML5P8wNxNONXl5rY-223">
          <mxGeometry y="120" width="315" height="30" as="geometry" />
        </mxCell>
        <mxCell id="KY0VML5P8wNxNONXl5rY-234" value="" style="shape=partialRectangle;connectable=0;fillColor=none;top=0;left=0;bottom=0;right=0;editable=1;overflow=hidden;whiteSpace=wrap;html=1;fontFamily=Verdana;fontSize=11;shadow=1;labelBackgroundColor=none;strokeColor=#D0CEE2;fontColor=#1A1A1A;fontStyle=0" vertex="1" parent="KY0VML5P8wNxNONXl5rY-233">
          <mxGeometry width="30" height="30" as="geometry">
            <mxRectangle width="30" height="30" as="alternateBounds" />
          </mxGeometry>
        </mxCell>
        <mxCell id="KY0VML5P8wNxNONXl5rY-235" value="DAC_VALORDESACR DECIMAL(10,2) NOT NULL" style="shape=partialRectangle;connectable=0;fillColor=none;top=0;left=0;bottom=0;right=0;align=left;spacingLeft=6;overflow=hidden;whiteSpace=wrap;html=1;fontFamily=Verdana;fontSize=11;shadow=1;labelBackgroundColor=none;strokeColor=#D0CEE2;fontColor=#1A1A1A;fontStyle=0" vertex="1" parent="KY0VML5P8wNxNONXl5rY-233">
          <mxGeometry x="30" width="285" height="30" as="geometry">
            <mxRectangle width="285" height="30" as="alternateBounds" />
          </mxGeometry>
        </mxCell>
        <mxCell id="KY0VML5P8wNxNONXl5rY-236" value="TB_JUROS_MULTA" style="shape=table;startSize=30;container=1;collapsible=1;childLayout=tableLayout;fixedRows=1;rowLines=0;fontStyle=0;align=center;resizeLast=1;html=1;fontFamily=Verdana;fontSize=11;shadow=1;labelBackgroundColor=none;fillColor=#5D7F99;strokeColor=#D0CEE2;fontColor=#1A1A1A;" vertex="1" parent="1">
          <mxGeometry x="238" y="2501" width="319" height="150" as="geometry" />
        </mxCell>
        <mxCell id="KY0VML5P8wNxNONXl5rY-237" value="" style="shape=tableRow;horizontal=0;startSize=0;swimlaneHead=0;swimlaneBody=0;fillColor=none;collapsible=0;dropTarget=0;points=[[0,0.5],[1,0.5]];portConstraint=eastwest;top=0;left=0;right=0;bottom=1;fontFamily=Verdana;fontSize=11;shadow=1;labelBackgroundColor=none;strokeColor=#D0CEE2;fontColor=#1A1A1A;fontStyle=0" vertex="1" parent="KY0VML5P8wNxNONXl5rY-236">
          <mxGeometry y="30" width="319" height="30" as="geometry" />
        </mxCell>
        <mxCell id="KY0VML5P8wNxNONXl5rY-238" value="PK" style="shape=partialRectangle;connectable=0;fillColor=none;top=0;left=0;bottom=0;right=0;fontStyle=0;overflow=hidden;whiteSpace=wrap;html=1;fontFamily=Verdana;fontSize=11;shadow=1;labelBackgroundColor=none;strokeColor=#D0CEE2;fontColor=#1A1A1A;" vertex="1" parent="KY0VML5P8wNxNONXl5rY-237">
          <mxGeometry width="30" height="30" as="geometry">
            <mxRectangle width="30" height="30" as="alternateBounds" />
          </mxGeometry>
        </mxCell>
        <mxCell id="KY0VML5P8wNxNONXl5rY-239" value="JMU_ID SERIAL" style="shape=partialRectangle;connectable=0;fillColor=none;top=0;left=0;bottom=0;right=0;align=left;spacingLeft=6;fontStyle=4;overflow=hidden;whiteSpace=wrap;html=1;fontFamily=Verdana;fontSize=11;shadow=1;labelBackgroundColor=none;strokeColor=#D0CEE2;fontColor=#1A1A1A;" vertex="1" parent="KY0VML5P8wNxNONXl5rY-237">
          <mxGeometry x="30" width="289" height="30" as="geometry">
            <mxRectangle width="289" height="30" as="alternateBounds" />
          </mxGeometry>
        </mxCell>
        <mxCell id="KY0VML5P8wNxNONXl5rY-240" value="" style="shape=tableRow;horizontal=0;startSize=0;swimlaneHead=0;swimlaneBody=0;fillColor=none;collapsible=0;dropTarget=0;points=[[0,0.5],[1,0.5]];portConstraint=eastwest;top=0;left=0;right=0;bottom=0;fontFamily=Verdana;fontSize=11;shadow=1;labelBackgroundColor=none;strokeColor=#D0CEE2;fontColor=#1A1A1A;fontStyle=0" vertex="1" parent="KY0VML5P8wNxNONXl5rY-236">
          <mxGeometry y="60" width="319" height="30" as="geometry" />
        </mxCell>
        <mxCell id="KY0VML5P8wNxNONXl5rY-241" value="" style="shape=partialRectangle;connectable=0;fillColor=none;top=0;left=0;bottom=0;right=0;editable=1;overflow=hidden;whiteSpace=wrap;html=1;fontFamily=Verdana;fontSize=11;shadow=1;labelBackgroundColor=none;strokeColor=#D0CEE2;fontColor=#1A1A1A;fontStyle=0" vertex="1" parent="KY0VML5P8wNxNONXl5rY-240">
          <mxGeometry width="30" height="30" as="geometry">
            <mxRectangle width="30" height="30" as="alternateBounds" />
          </mxGeometry>
        </mxCell>
        <mxCell id="KY0VML5P8wNxNONXl5rY-242" value="JMU_CODJUROS VARCHAR(6) NOT NULL" style="shape=partialRectangle;connectable=0;fillColor=none;top=0;left=0;bottom=0;right=0;align=left;spacingLeft=6;overflow=hidden;whiteSpace=wrap;html=1;fontFamily=Verdana;fontSize=11;shadow=1;labelBackgroundColor=none;strokeColor=#D0CEE2;fontColor=#1A1A1A;fontStyle=0" vertex="1" parent="KY0VML5P8wNxNONXl5rY-240">
          <mxGeometry x="30" width="289" height="30" as="geometry">
            <mxRectangle width="289" height="30" as="alternateBounds" />
          </mxGeometry>
        </mxCell>
        <mxCell id="KY0VML5P8wNxNONXl5rY-243" value="" style="shape=tableRow;horizontal=0;startSize=0;swimlaneHead=0;swimlaneBody=0;fillColor=none;collapsible=0;dropTarget=0;points=[[0,0.5],[1,0.5]];portConstraint=eastwest;top=0;left=0;right=0;bottom=0;fontFamily=Verdana;fontSize=11;shadow=1;labelBackgroundColor=none;strokeColor=#D0CEE2;fontColor=#1A1A1A;fontStyle=0" vertex="1" parent="KY0VML5P8wNxNONXl5rY-236">
          <mxGeometry y="90" width="319" height="30" as="geometry" />
        </mxCell>
        <mxCell id="KY0VML5P8wNxNONXl5rY-244" value="" style="shape=partialRectangle;connectable=0;fillColor=none;top=0;left=0;bottom=0;right=0;editable=1;overflow=hidden;whiteSpace=wrap;html=1;fontFamily=Verdana;fontSize=11;shadow=1;labelBackgroundColor=none;strokeColor=#D0CEE2;fontColor=#1A1A1A;fontStyle=0" vertex="1" parent="KY0VML5P8wNxNONXl5rY-243">
          <mxGeometry width="30" height="30" as="geometry">
            <mxRectangle width="30" height="30" as="alternateBounds" />
          </mxGeometry>
        </mxCell>
        <mxCell id="KY0VML5P8wNxNONXl5rY-245" value="JMU_DESCRICAO VARCHAR(100) NOT NULL" style="shape=partialRectangle;connectable=0;fillColor=none;top=0;left=0;bottom=0;right=0;align=left;spacingLeft=6;overflow=hidden;whiteSpace=wrap;html=1;fontFamily=Verdana;fontSize=11;shadow=1;labelBackgroundColor=none;strokeColor=#D0CEE2;fontColor=#1A1A1A;fontStyle=0" vertex="1" parent="KY0VML5P8wNxNONXl5rY-243">
          <mxGeometry x="30" width="289" height="30" as="geometry">
            <mxRectangle width="289" height="30" as="alternateBounds" />
          </mxGeometry>
        </mxCell>
        <mxCell id="KY0VML5P8wNxNONXl5rY-246" value="" style="shape=tableRow;horizontal=0;startSize=0;swimlaneHead=0;swimlaneBody=0;fillColor=none;collapsible=0;dropTarget=0;points=[[0,0.5],[1,0.5]];portConstraint=eastwest;top=0;left=0;right=0;bottom=0;fontFamily=Verdana;fontSize=11;shadow=1;labelBackgroundColor=none;strokeColor=#D0CEE2;fontColor=#1A1A1A;fontStyle=0" vertex="1" parent="KY0VML5P8wNxNONXl5rY-236">
          <mxGeometry y="120" width="319" height="30" as="geometry" />
        </mxCell>
        <mxCell id="KY0VML5P8wNxNONXl5rY-247" value="" style="shape=partialRectangle;connectable=0;fillColor=none;top=0;left=0;bottom=0;right=0;editable=1;overflow=hidden;whiteSpace=wrap;html=1;fontFamily=Verdana;fontSize=11;shadow=1;labelBackgroundColor=none;strokeColor=#D0CEE2;fontColor=#1A1A1A;fontStyle=0" vertex="1" parent="KY0VML5P8wNxNONXl5rY-246">
          <mxGeometry width="30" height="30" as="geometry">
            <mxRectangle width="30" height="30" as="alternateBounds" />
          </mxGeometry>
        </mxCell>
        <mxCell id="KY0VML5P8wNxNONXl5rY-248" value="JMU_PORCENTJUROS DECIMAL(1,4) NOT NULL" style="shape=partialRectangle;connectable=0;fillColor=none;top=0;left=0;bottom=0;right=0;align=left;spacingLeft=6;overflow=hidden;whiteSpace=wrap;html=1;fontFamily=Verdana;fontSize=11;shadow=1;labelBackgroundColor=none;strokeColor=#D0CEE2;fontColor=#1A1A1A;fontStyle=0" vertex="1" parent="KY0VML5P8wNxNONXl5rY-246">
          <mxGeometry x="30" width="289" height="30" as="geometry">
            <mxRectangle width="289" height="30" as="alternateBounds" />
          </mxGeometry>
        </mxCell>
        <mxCell id="KY0VML5P8wNxNONXl5rY-249" value="TB_MULTA_LOCACOES" style="shape=table;startSize=30;container=1;collapsible=1;childLayout=tableLayout;fixedRows=1;rowLines=0;fontStyle=0;align=center;resizeLast=1;html=1;fontFamily=Verdana;fontSize=11;shadow=1;labelBackgroundColor=none;fillColor=#5D7F99;strokeColor=#D0CEE2;fontColor=#1A1A1A;" vertex="1" parent="1">
          <mxGeometry x="711" y="2527" width="235" height="120" as="geometry" />
        </mxCell>
        <mxCell id="KY0VML5P8wNxNONXl5rY-250" value="" style="shape=tableRow;horizontal=0;startSize=0;swimlaneHead=0;swimlaneBody=0;fillColor=none;collapsible=0;dropTarget=0;points=[[0,0.5],[1,0.5]];portConstraint=eastwest;top=0;left=0;right=0;bottom=1;fontFamily=Verdana;fontSize=11;shadow=1;labelBackgroundColor=none;strokeColor=#D0CEE2;fontColor=#1A1A1A;fontStyle=0" vertex="1" parent="KY0VML5P8wNxNONXl5rY-249">
          <mxGeometry y="30" width="235" height="30" as="geometry" />
        </mxCell>
        <mxCell id="KY0VML5P8wNxNONXl5rY-251" value="PK" style="shape=partialRectangle;connectable=0;fillColor=none;top=0;left=0;bottom=0;right=0;fontStyle=0;overflow=hidden;whiteSpace=wrap;html=1;fontFamily=Verdana;fontSize=11;shadow=1;labelBackgroundColor=none;strokeColor=#D0CEE2;fontColor=#1A1A1A;" vertex="1" parent="KY0VML5P8wNxNONXl5rY-250">
          <mxGeometry width="30" height="30" as="geometry">
            <mxRectangle width="30" height="30" as="alternateBounds" />
          </mxGeometry>
        </mxCell>
        <mxCell id="KY0VML5P8wNxNONXl5rY-252" value="MLO_ID SERIAL" style="shape=partialRectangle;connectable=0;fillColor=none;top=0;left=0;bottom=0;right=0;align=left;spacingLeft=6;fontStyle=4;overflow=hidden;whiteSpace=wrap;html=1;fontFamily=Verdana;fontSize=11;shadow=1;labelBackgroundColor=none;strokeColor=#D0CEE2;fontColor=#1A1A1A;" vertex="1" parent="KY0VML5P8wNxNONXl5rY-250">
          <mxGeometry x="30" width="205" height="30" as="geometry">
            <mxRectangle width="205" height="30" as="alternateBounds" />
          </mxGeometry>
        </mxCell>
        <mxCell id="KY0VML5P8wNxNONXl5rY-253" value="" style="shape=tableRow;horizontal=0;startSize=0;swimlaneHead=0;swimlaneBody=0;fillColor=none;collapsible=0;dropTarget=0;points=[[0,0.5],[1,0.5]];portConstraint=eastwest;top=0;left=0;right=0;bottom=0;fontFamily=Verdana;fontSize=11;shadow=1;labelBackgroundColor=none;strokeColor=#D0CEE2;fontColor=#1A1A1A;fontStyle=0" vertex="1" parent="KY0VML5P8wNxNONXl5rY-249">
          <mxGeometry y="60" width="235" height="30" as="geometry" />
        </mxCell>
        <mxCell id="KY0VML5P8wNxNONXl5rY-254" value="FK" style="shape=partialRectangle;connectable=0;fillColor=none;top=0;left=0;bottom=0;right=0;editable=1;overflow=hidden;whiteSpace=wrap;html=1;fontFamily=Verdana;fontSize=11;shadow=1;labelBackgroundColor=none;strokeColor=#D0CEE2;fontColor=#1A1A1A;fontStyle=0" vertex="1" parent="KY0VML5P8wNxNONXl5rY-253">
          <mxGeometry width="30" height="30" as="geometry">
            <mxRectangle width="30" height="30" as="alternateBounds" />
          </mxGeometry>
        </mxCell>
        <mxCell id="KY0VML5P8wNxNONXl5rY-255" value="MLO_LOCID INT NOT NULL" style="shape=partialRectangle;connectable=0;fillColor=none;top=0;left=0;bottom=0;right=0;align=left;spacingLeft=6;overflow=hidden;whiteSpace=wrap;html=1;fontFamily=Verdana;fontSize=11;shadow=1;labelBackgroundColor=none;strokeColor=#D0CEE2;fontColor=#1A1A1A;fontStyle=0" vertex="1" parent="KY0VML5P8wNxNONXl5rY-253">
          <mxGeometry x="30" width="205" height="30" as="geometry">
            <mxRectangle width="205" height="30" as="alternateBounds" />
          </mxGeometry>
        </mxCell>
        <mxCell id="KY0VML5P8wNxNONXl5rY-256" value="" style="shape=tableRow;horizontal=0;startSize=0;swimlaneHead=0;swimlaneBody=0;fillColor=none;collapsible=0;dropTarget=0;points=[[0,0.5],[1,0.5]];portConstraint=eastwest;top=0;left=0;right=0;bottom=0;fontFamily=Verdana;fontSize=11;shadow=1;labelBackgroundColor=none;strokeColor=#D0CEE2;fontColor=#1A1A1A;fontStyle=0" vertex="1" parent="KY0VML5P8wNxNONXl5rY-249">
          <mxGeometry y="90" width="235" height="30" as="geometry" />
        </mxCell>
        <mxCell id="KY0VML5P8wNxNONXl5rY-257" value="FK" style="shape=partialRectangle;connectable=0;fillColor=none;top=0;left=0;bottom=0;right=0;editable=1;overflow=hidden;whiteSpace=wrap;html=1;fontFamily=Verdana;fontSize=11;shadow=1;labelBackgroundColor=none;strokeColor=#D0CEE2;fontColor=#1A1A1A;fontStyle=0" vertex="1" parent="KY0VML5P8wNxNONXl5rY-256">
          <mxGeometry width="30" height="30" as="geometry">
            <mxRectangle width="30" height="30" as="alternateBounds" />
          </mxGeometry>
        </mxCell>
        <mxCell id="KY0VML5P8wNxNONXl5rY-258" value="MLO_JMUID INT FK NOT NULL" style="shape=partialRectangle;connectable=0;fillColor=none;top=0;left=0;bottom=0;right=0;align=left;spacingLeft=6;overflow=hidden;whiteSpace=wrap;html=1;fontFamily=Verdana;fontSize=11;shadow=1;labelBackgroundColor=none;strokeColor=#D0CEE2;fontColor=#1A1A1A;fontStyle=0" vertex="1" parent="KY0VML5P8wNxNONXl5rY-256">
          <mxGeometry x="30" width="205" height="30" as="geometry">
            <mxRectangle width="205" height="30" as="alternateBounds" />
          </mxGeometry>
        </mxCell>
        <mxCell id="KY0VML5P8wNxNONXl5rY-262" value="TB_DESACR_LOCACOES" style="shape=table;startSize=30;container=1;collapsible=1;childLayout=tableLayout;fixedRows=1;rowLines=0;fontStyle=0;align=center;resizeLast=1;html=1;fontFamily=Verdana;fontSize=11;shadow=1;labelBackgroundColor=none;fillColor=#5D7F99;strokeColor=#D0CEE2;fontColor=#1A1A1A;" vertex="1" parent="1">
          <mxGeometry x="714" y="2200" width="201" height="120" as="geometry" />
        </mxCell>
        <mxCell id="KY0VML5P8wNxNONXl5rY-263" value="" style="shape=tableRow;horizontal=0;startSize=0;swimlaneHead=0;swimlaneBody=0;fillColor=none;collapsible=0;dropTarget=0;points=[[0,0.5],[1,0.5]];portConstraint=eastwest;top=0;left=0;right=0;bottom=1;fontFamily=Verdana;fontSize=11;shadow=1;labelBackgroundColor=none;strokeColor=#D0CEE2;fontColor=#1A1A1A;fontStyle=0" vertex="1" parent="KY0VML5P8wNxNONXl5rY-262">
          <mxGeometry y="30" width="201" height="30" as="geometry" />
        </mxCell>
        <mxCell id="KY0VML5P8wNxNONXl5rY-264" value="PK" style="shape=partialRectangle;connectable=0;fillColor=none;top=0;left=0;bottom=0;right=0;fontStyle=0;overflow=hidden;whiteSpace=wrap;html=1;fontFamily=Verdana;fontSize=11;shadow=1;labelBackgroundColor=none;strokeColor=#D0CEE2;fontColor=#1A1A1A;" vertex="1" parent="KY0VML5P8wNxNONXl5rY-263">
          <mxGeometry width="30" height="30" as="geometry">
            <mxRectangle width="30" height="30" as="alternateBounds" />
          </mxGeometry>
        </mxCell>
        <mxCell id="KY0VML5P8wNxNONXl5rY-265" value="DLO_ID SERIAL" style="shape=partialRectangle;connectable=0;fillColor=none;top=0;left=0;bottom=0;right=0;align=left;spacingLeft=6;fontStyle=4;overflow=hidden;whiteSpace=wrap;html=1;fontFamily=Verdana;fontSize=11;shadow=1;labelBackgroundColor=none;strokeColor=#D0CEE2;fontColor=#1A1A1A;" vertex="1" parent="KY0VML5P8wNxNONXl5rY-263">
          <mxGeometry x="30" width="171" height="30" as="geometry">
            <mxRectangle width="171" height="30" as="alternateBounds" />
          </mxGeometry>
        </mxCell>
        <mxCell id="KY0VML5P8wNxNONXl5rY-266" value="" style="shape=tableRow;horizontal=0;startSize=0;swimlaneHead=0;swimlaneBody=0;fillColor=none;collapsible=0;dropTarget=0;points=[[0,0.5],[1,0.5]];portConstraint=eastwest;top=0;left=0;right=0;bottom=0;fontFamily=Verdana;fontSize=11;shadow=1;labelBackgroundColor=none;strokeColor=#D0CEE2;fontColor=#1A1A1A;fontStyle=0" vertex="1" parent="KY0VML5P8wNxNONXl5rY-262">
          <mxGeometry y="60" width="201" height="30" as="geometry" />
        </mxCell>
        <mxCell id="KY0VML5P8wNxNONXl5rY-267" value="FK" style="shape=partialRectangle;connectable=0;fillColor=none;top=0;left=0;bottom=0;right=0;editable=1;overflow=hidden;whiteSpace=wrap;html=1;fontFamily=Verdana;fontSize=11;shadow=1;labelBackgroundColor=none;strokeColor=#D0CEE2;fontColor=#1A1A1A;fontStyle=0" vertex="1" parent="KY0VML5P8wNxNONXl5rY-266">
          <mxGeometry width="30" height="30" as="geometry">
            <mxRectangle width="30" height="30" as="alternateBounds" />
          </mxGeometry>
        </mxCell>
        <mxCell id="KY0VML5P8wNxNONXl5rY-268" value="DLO_LOCID INT NOT NULL" style="shape=partialRectangle;connectable=0;fillColor=none;top=0;left=0;bottom=0;right=0;align=left;spacingLeft=6;overflow=hidden;whiteSpace=wrap;html=1;fontFamily=Verdana;fontSize=11;shadow=1;labelBackgroundColor=none;strokeColor=#D0CEE2;fontColor=#1A1A1A;fontStyle=0" vertex="1" parent="KY0VML5P8wNxNONXl5rY-266">
          <mxGeometry x="30" width="171" height="30" as="geometry">
            <mxRectangle width="171" height="30" as="alternateBounds" />
          </mxGeometry>
        </mxCell>
        <mxCell id="KY0VML5P8wNxNONXl5rY-269" value="" style="shape=tableRow;horizontal=0;startSize=0;swimlaneHead=0;swimlaneBody=0;fillColor=none;collapsible=0;dropTarget=0;points=[[0,0.5],[1,0.5]];portConstraint=eastwest;top=0;left=0;right=0;bottom=0;fontFamily=Verdana;fontSize=11;shadow=1;labelBackgroundColor=none;strokeColor=#D0CEE2;fontColor=#1A1A1A;fontStyle=0" vertex="1" parent="KY0VML5P8wNxNONXl5rY-262">
          <mxGeometry y="90" width="201" height="30" as="geometry" />
        </mxCell>
        <mxCell id="KY0VML5P8wNxNONXl5rY-270" value="FK" style="shape=partialRectangle;connectable=0;fillColor=none;top=0;left=0;bottom=0;right=0;editable=1;overflow=hidden;whiteSpace=wrap;html=1;fontFamily=Verdana;fontSize=11;shadow=1;labelBackgroundColor=none;strokeColor=#D0CEE2;fontColor=#1A1A1A;fontStyle=0" vertex="1" parent="KY0VML5P8wNxNONXl5rY-269">
          <mxGeometry width="30" height="30" as="geometry">
            <mxRectangle width="30" height="30" as="alternateBounds" />
          </mxGeometry>
        </mxCell>
        <mxCell id="KY0VML5P8wNxNONXl5rY-271" value="DLO_DACID INT NOT NULL" style="shape=partialRectangle;connectable=0;fillColor=none;top=0;left=0;bottom=0;right=0;align=left;spacingLeft=6;overflow=hidden;whiteSpace=wrap;html=1;fontFamily=Verdana;fontSize=11;shadow=1;labelBackgroundColor=none;strokeColor=#D0CEE2;fontColor=#1A1A1A;fontStyle=0" vertex="1" parent="KY0VML5P8wNxNONXl5rY-269">
          <mxGeometry x="30" width="171" height="30" as="geometry">
            <mxRectangle width="171" height="30" as="alternateBounds" />
          </mxGeometry>
        </mxCell>
        <mxCell id="KY0VML5P8wNxNONXl5rY-275" value="TB_LOCACOES_PAG" style="shape=table;startSize=30;container=1;collapsible=1;childLayout=tableLayout;fixedRows=1;rowLines=0;fontStyle=0;align=center;resizeLast=1;html=1;fontFamily=Verdana;fontSize=11;shadow=1;labelBackgroundColor=none;fillColor=#5D7F99;strokeColor=#D0CEE2;fontColor=#1A1A1A;" vertex="1" parent="1">
          <mxGeometry x="1161" y="2474" width="258" height="150" as="geometry" />
        </mxCell>
        <mxCell id="KY0VML5P8wNxNONXl5rY-276" value="" style="shape=tableRow;horizontal=0;startSize=0;swimlaneHead=0;swimlaneBody=0;fillColor=none;collapsible=0;dropTarget=0;points=[[0,0.5],[1,0.5]];portConstraint=eastwest;top=0;left=0;right=0;bottom=1;fontFamily=Verdana;fontSize=11;shadow=1;labelBackgroundColor=none;strokeColor=#D0CEE2;fontColor=#1A1A1A;fontStyle=0" vertex="1" parent="KY0VML5P8wNxNONXl5rY-275">
          <mxGeometry y="30" width="258" height="30" as="geometry" />
        </mxCell>
        <mxCell id="KY0VML5P8wNxNONXl5rY-277" value="PK" style="shape=partialRectangle;connectable=0;fillColor=none;top=0;left=0;bottom=0;right=0;fontStyle=0;overflow=hidden;whiteSpace=wrap;html=1;fontFamily=Verdana;fontSize=11;shadow=1;labelBackgroundColor=none;strokeColor=#D0CEE2;fontColor=#1A1A1A;" vertex="1" parent="KY0VML5P8wNxNONXl5rY-276">
          <mxGeometry width="30" height="30" as="geometry">
            <mxRectangle width="30" height="30" as="alternateBounds" />
          </mxGeometry>
        </mxCell>
        <mxCell id="KY0VML5P8wNxNONXl5rY-278" value="LPA_ID SERIAL" style="shape=partialRectangle;connectable=0;fillColor=none;top=0;left=0;bottom=0;right=0;align=left;spacingLeft=6;fontStyle=4;overflow=hidden;whiteSpace=wrap;html=1;fontFamily=Verdana;fontSize=11;shadow=1;labelBackgroundColor=none;strokeColor=#D0CEE2;fontColor=#1A1A1A;" vertex="1" parent="KY0VML5P8wNxNONXl5rY-276">
          <mxGeometry x="30" width="228" height="30" as="geometry">
            <mxRectangle width="228" height="30" as="alternateBounds" />
          </mxGeometry>
        </mxCell>
        <mxCell id="KY0VML5P8wNxNONXl5rY-279" value="" style="shape=tableRow;horizontal=0;startSize=0;swimlaneHead=0;swimlaneBody=0;fillColor=none;collapsible=0;dropTarget=0;points=[[0,0.5],[1,0.5]];portConstraint=eastwest;top=0;left=0;right=0;bottom=0;fontFamily=Verdana;fontSize=11;shadow=1;labelBackgroundColor=none;strokeColor=#D0CEE2;fontColor=#1A1A1A;fontStyle=0" vertex="1" parent="KY0VML5P8wNxNONXl5rY-275">
          <mxGeometry y="60" width="258" height="30" as="geometry" />
        </mxCell>
        <mxCell id="KY0VML5P8wNxNONXl5rY-280" value="FK" style="shape=partialRectangle;connectable=0;fillColor=none;top=0;left=0;bottom=0;right=0;editable=1;overflow=hidden;whiteSpace=wrap;html=1;fontFamily=Verdana;fontSize=11;shadow=1;labelBackgroundColor=none;strokeColor=#D0CEE2;fontColor=#1A1A1A;fontStyle=0" vertex="1" parent="KY0VML5P8wNxNONXl5rY-279">
          <mxGeometry width="30" height="30" as="geometry">
            <mxRectangle width="30" height="30" as="alternateBounds" />
          </mxGeometry>
        </mxCell>
        <mxCell id="KY0VML5P8wNxNONXl5rY-281" value="LPA_LOCID INT NOT NULL" style="shape=partialRectangle;connectable=0;fillColor=none;top=0;left=0;bottom=0;right=0;align=left;spacingLeft=6;overflow=hidden;whiteSpace=wrap;html=1;fontFamily=Verdana;fontSize=11;shadow=1;labelBackgroundColor=none;strokeColor=#D0CEE2;fontColor=#1A1A1A;fontStyle=0" vertex="1" parent="KY0VML5P8wNxNONXl5rY-279">
          <mxGeometry x="30" width="228" height="30" as="geometry">
            <mxRectangle width="228" height="30" as="alternateBounds" />
          </mxGeometry>
        </mxCell>
        <mxCell id="KY0VML5P8wNxNONXl5rY-282" value="" style="shape=tableRow;horizontal=0;startSize=0;swimlaneHead=0;swimlaneBody=0;fillColor=none;collapsible=0;dropTarget=0;points=[[0,0.5],[1,0.5]];portConstraint=eastwest;top=0;left=0;right=0;bottom=0;fontFamily=Verdana;fontSize=11;shadow=1;labelBackgroundColor=none;strokeColor=#D0CEE2;fontColor=#1A1A1A;fontStyle=0" vertex="1" parent="KY0VML5P8wNxNONXl5rY-275">
          <mxGeometry y="90" width="258" height="30" as="geometry" />
        </mxCell>
        <mxCell id="KY0VML5P8wNxNONXl5rY-283" value="" style="shape=partialRectangle;connectable=0;fillColor=none;top=0;left=0;bottom=0;right=0;editable=1;overflow=hidden;whiteSpace=wrap;html=1;fontFamily=Verdana;fontSize=11;shadow=1;labelBackgroundColor=none;strokeColor=#D0CEE2;fontColor=#1A1A1A;fontStyle=0" vertex="1" parent="KY0VML5P8wNxNONXl5rY-282">
          <mxGeometry width="30" height="30" as="geometry">
            <mxRectangle width="30" height="30" as="alternateBounds" />
          </mxGeometry>
        </mxCell>
        <mxCell id="KY0VML5P8wNxNONXl5rY-284" value="LPA_SITPAG VARCHAR(20) NOT NULL" style="shape=partialRectangle;connectable=0;fillColor=none;top=0;left=0;bottom=0;right=0;align=left;spacingLeft=6;overflow=hidden;whiteSpace=wrap;html=1;fontFamily=Verdana;fontSize=11;shadow=1;labelBackgroundColor=none;strokeColor=#D0CEE2;fontColor=#1A1A1A;fontStyle=0" vertex="1" parent="KY0VML5P8wNxNONXl5rY-282">
          <mxGeometry x="30" width="228" height="30" as="geometry">
            <mxRectangle width="228" height="30" as="alternateBounds" />
          </mxGeometry>
        </mxCell>
        <mxCell id="KY0VML5P8wNxNONXl5rY-285" value="" style="shape=tableRow;horizontal=0;startSize=0;swimlaneHead=0;swimlaneBody=0;fillColor=none;collapsible=0;dropTarget=0;points=[[0,0.5],[1,0.5]];portConstraint=eastwest;top=0;left=0;right=0;bottom=0;fontFamily=Verdana;fontSize=11;shadow=1;labelBackgroundColor=none;strokeColor=#D0CEE2;fontColor=#1A1A1A;fontStyle=0" vertex="1" parent="KY0VML5P8wNxNONXl5rY-275">
          <mxGeometry y="120" width="258" height="30" as="geometry" />
        </mxCell>
        <mxCell id="KY0VML5P8wNxNONXl5rY-286" value="" style="shape=partialRectangle;connectable=0;fillColor=none;top=0;left=0;bottom=0;right=0;editable=1;overflow=hidden;whiteSpace=wrap;html=1;fontFamily=Verdana;fontSize=11;shadow=1;labelBackgroundColor=none;strokeColor=#D0CEE2;fontColor=#1A1A1A;fontStyle=0" vertex="1" parent="KY0VML5P8wNxNONXl5rY-285">
          <mxGeometry width="30" height="30" as="geometry">
            <mxRectangle width="30" height="30" as="alternateBounds" />
          </mxGeometry>
        </mxCell>
        <mxCell id="KY0VML5P8wNxNONXl5rY-287" value="LPA_VALPAGO DECIMAL(10,2)" style="shape=partialRectangle;connectable=0;fillColor=none;top=0;left=0;bottom=0;right=0;align=left;spacingLeft=6;overflow=hidden;whiteSpace=wrap;html=1;fontFamily=Verdana;fontSize=11;shadow=1;labelBackgroundColor=none;strokeColor=#D0CEE2;fontColor=#1A1A1A;fontStyle=0" vertex="1" parent="KY0VML5P8wNxNONXl5rY-285">
          <mxGeometry x="30" width="228" height="30" as="geometry">
            <mxRectangle width="228" height="30" as="alternateBounds" />
          </mxGeometry>
        </mxCell>
        <mxCell id="KY0VML5P8wNxNONXl5rY-290" style="edgeStyle=orthogonalEdgeStyle;rounded=0;orthogonalLoop=1;jettySize=auto;html=1;exitX=0;exitY=0.5;exitDx=0;exitDy=0;fontSize=11;fontFamily=Verdana;shadow=1;labelBackgroundColor=none;strokeColor=#736CA8;fontColor=default;fontStyle=0" edge="1" parent="1" source="KY0VML5P8wNxNONXl5rY-118" target="KY0VML5P8wNxNONXl5rY-105">
          <mxGeometry relative="1" as="geometry">
            <mxPoint x="1134" y="1657" as="targetPoint" />
            <Array as="points">
              <mxPoint x="1125" y="1219" />
              <mxPoint x="1125" y="1653" />
            </Array>
          </mxGeometry>
        </mxCell>
        <mxCell id="KY0VML5P8wNxNONXl5rY-291" style="edgeStyle=orthogonalEdgeStyle;rounded=0;orthogonalLoop=1;jettySize=auto;html=1;fontSize=11;fontFamily=Verdana;shadow=1;labelBackgroundColor=none;strokeColor=#736CA8;fontColor=default;fontStyle=0" edge="1" parent="1" source="KY0VML5P8wNxNONXl5rY-143" target="KY0VML5P8wNxNONXl5rY-133">
          <mxGeometry relative="1" as="geometry" />
        </mxCell>
        <mxCell id="KY0VML5P8wNxNONXl5rY-293" style="edgeStyle=orthogonalEdgeStyle;rounded=0;orthogonalLoop=1;jettySize=auto;html=1;entryX=0;entryY=0.5;entryDx=0;entryDy=0;exitX=0;exitY=0.25;exitDx=0;exitDy=0;fontSize=11;fontFamily=Verdana;shadow=1;labelBackgroundColor=none;strokeColor=#736CA8;fontColor=default;fontStyle=0" edge="1" parent="1" source="KY0VML5P8wNxNONXl5rY-155" target="KY0VML5P8wNxNONXl5rY-149">
          <mxGeometry relative="1" as="geometry">
            <Array as="points">
              <mxPoint x="1580" y="1516" />
              <mxPoint x="1580" y="1424" />
            </Array>
          </mxGeometry>
        </mxCell>
        <mxCell id="KY0VML5P8wNxNONXl5rY-302" style="edgeStyle=orthogonalEdgeStyle;rounded=0;orthogonalLoop=1;jettySize=auto;html=1;entryX=0;entryY=0.5;entryDx=0;entryDy=0;fontSize=11;fontFamily=Verdana;shadow=1;labelBackgroundColor=none;strokeColor=#736CA8;fontColor=default;fontStyle=0" edge="1" parent="1" source="KY0VML5P8wNxNONXl5rY-90" target="KY0VML5P8wNxNONXl5rY-188">
          <mxGeometry relative="1" as="geometry">
            <Array as="points">
              <mxPoint x="644" y="1505" />
              <mxPoint x="644" y="1805" />
            </Array>
          </mxGeometry>
        </mxCell>
        <mxCell id="KY0VML5P8wNxNONXl5rY-303" style="edgeStyle=orthogonalEdgeStyle;rounded=0;orthogonalLoop=1;jettySize=auto;html=1;exitX=1;exitY=0.5;exitDx=0;exitDy=0;fontSize=11;fontFamily=Verdana;shadow=1;labelBackgroundColor=none;strokeColor=#736CA8;fontColor=default;fontStyle=0" edge="1" parent="1" source="C-vyLk0tnHw3VtMMgP7b-24" target="KY0VML5P8wNxNONXl5rY-191">
          <mxGeometry relative="1" as="geometry">
            <Array as="points">
              <mxPoint x="617" y="1381" />
              <mxPoint x="617" y="1835" />
            </Array>
          </mxGeometry>
        </mxCell>
        <mxCell id="KY0VML5P8wNxNONXl5rY-304" style="edgeStyle=orthogonalEdgeStyle;rounded=0;orthogonalLoop=1;jettySize=auto;html=1;entryX=0;entryY=0.5;entryDx=0;entryDy=0;fontSize=11;fontFamily=Verdana;shadow=1;labelBackgroundColor=none;strokeColor=#736CA8;fontColor=default;fontStyle=0" edge="1" parent="1" source="KY0VML5P8wNxNONXl5rY-185" target="KY0VML5P8wNxNONXl5rY-217">
          <mxGeometry relative="1" as="geometry">
            <Array as="points">
              <mxPoint x="1057" y="1775" />
              <mxPoint x="1057" y="2221" />
            </Array>
          </mxGeometry>
        </mxCell>
        <mxCell id="KY0VML5P8wNxNONXl5rY-305" style="edgeStyle=orthogonalEdgeStyle;rounded=0;orthogonalLoop=1;jettySize=auto;html=1;entryX=0;entryY=0.5;entryDx=0;entryDy=0;fontSize=11;fontFamily=Verdana;shadow=1;labelBackgroundColor=none;strokeColor=#736CA8;fontColor=default;fontStyle=0" edge="1" parent="1" source="KY0VML5P8wNxNONXl5rY-169" target="KY0VML5P8wNxNONXl5rY-214">
          <mxGeometry relative="1" as="geometry">
            <Array as="points">
              <mxPoint x="1433" y="1915" />
              <mxPoint x="1433" y="2012" />
              <mxPoint x="1120" y="2012" />
              <mxPoint x="1120" y="2191" />
            </Array>
          </mxGeometry>
        </mxCell>
        <mxCell id="KY0VML5P8wNxNONXl5rY-306" style="edgeStyle=orthogonalEdgeStyle;rounded=0;orthogonalLoop=1;jettySize=auto;html=1;entryX=0;entryY=0.5;entryDx=0;entryDy=0;fontSize=11;fontFamily=Verdana;shadow=1;labelBackgroundColor=none;strokeColor=#736CA8;fontColor=default;fontStyle=0" edge="1" parent="1" source="KY0VML5P8wNxNONXl5rY-185" target="KY0VML5P8wNxNONXl5rY-279">
          <mxGeometry relative="1" as="geometry">
            <Array as="points">
              <mxPoint x="1042" y="1775" />
              <mxPoint x="1042" y="2546" />
              <mxPoint x="1161" y="2546" />
            </Array>
          </mxGeometry>
        </mxCell>
        <mxCell id="KY0VML5P8wNxNONXl5rY-308" style="edgeStyle=orthogonalEdgeStyle;rounded=0;orthogonalLoop=1;jettySize=auto;html=1;entryX=0;entryY=0.5;entryDx=0;entryDy=0;exitX=1;exitY=0.5;exitDx=0;exitDy=0;fontSize=11;fontFamily=Verdana;shadow=1;labelBackgroundColor=none;strokeColor=#736CA8;fontColor=default;fontStyle=0" edge="1" parent="1" source="KY0VML5P8wNxNONXl5rY-237" target="KY0VML5P8wNxNONXl5rY-256">
          <mxGeometry relative="1" as="geometry">
            <Array as="points">
              <mxPoint x="634" y="2546" />
              <mxPoint x="634" y="2632" />
            </Array>
          </mxGeometry>
        </mxCell>
        <mxCell id="KY0VML5P8wNxNONXl5rY-310" style="edgeStyle=orthogonalEdgeStyle;rounded=0;orthogonalLoop=1;jettySize=auto;html=1;fontSize=11;fontFamily=Verdana;shadow=1;labelBackgroundColor=none;strokeColor=#736CA8;fontColor=default;fontStyle=0" edge="1" parent="1" source="KY0VML5P8wNxNONXl5rY-185" target="KY0VML5P8wNxNONXl5rY-253">
          <mxGeometry relative="1" as="geometry">
            <Array as="points">
              <mxPoint x="1024" y="1775" />
              <mxPoint x="1024" y="2454" />
              <mxPoint x="682" y="2454" />
              <mxPoint x="682" y="2602" />
            </Array>
          </mxGeometry>
        </mxCell>
        <mxCell id="KY0VML5P8wNxNONXl5rY-311" style="edgeStyle=orthogonalEdgeStyle;rounded=0;orthogonalLoop=1;jettySize=auto;html=1;entryX=0;entryY=0.5;entryDx=0;entryDy=0;fontSize=11;fontFamily=Verdana;shadow=1;labelBackgroundColor=none;strokeColor=#736CA8;fontColor=default;fontStyle=0" edge="1" parent="1" source="KY0VML5P8wNxNONXl5rY-224" target="KY0VML5P8wNxNONXl5rY-269">
          <mxGeometry relative="1" as="geometry" />
        </mxCell>
        <mxCell id="KY0VML5P8wNxNONXl5rY-312" style="edgeStyle=orthogonalEdgeStyle;rounded=0;orthogonalLoop=1;jettySize=auto;html=1;exitX=1;exitY=0.5;exitDx=0;exitDy=0;entryX=0;entryY=0.5;entryDx=0;entryDy=0;fontSize=11;fontFamily=Verdana;shadow=1;labelBackgroundColor=none;strokeColor=#736CA8;fontColor=default;fontStyle=0" edge="1" parent="1" source="KY0VML5P8wNxNONXl5rY-185" target="KY0VML5P8wNxNONXl5rY-266">
          <mxGeometry relative="1" as="geometry">
            <Array as="points">
              <mxPoint x="1004" y="1775" />
              <mxPoint x="1004" y="2130" />
              <mxPoint x="680" y="2130" />
              <mxPoint x="680" y="2275" />
            </Array>
          </mxGeometry>
        </mxCell>
        <mxCell id="KY0VML5P8wNxNONXl5rY-313" style="edgeStyle=orthogonalEdgeStyle;rounded=0;orthogonalLoop=1;jettySize=auto;html=1;entryX=0;entryY=0.5;entryDx=0;entryDy=0;fontSize=11;fontFamily=Verdana;shadow=1;labelBackgroundColor=none;strokeColor=#736CA8;fontColor=default;fontStyle=0" edge="1" parent="1" source="KY0VML5P8wNxNONXl5rY-77" target="KY0VML5P8wNxNONXl5rY-34">
          <mxGeometry relative="1" as="geometry">
            <Array as="points">
              <mxPoint x="223" y="1260" />
              <mxPoint x="223" y="1475" />
            </Array>
          </mxGeometry>
        </mxCell>
      </root>
    </mxGraphModel>
  </diagram>
</mxfile>
